<svg width="280" height="280" viewBox="0 0 280 280" fill="none" xmlns="http://www.w3.org/2000/svg">
<g clip-path="url(#clip0_14_20)">
<mask id="mask0_14_20" style="mask-type:luminance" maskUnits="userSpaceOnUse" x="0" y="0" width="280" height="280">
<path d="M280 0H0V280H280V0Z" fill="white"/>
</mask>
<g mask="url(#mask0_14_20)">
<path d="M280 0H0V280H280V0Z" fill="#1DE9B6"/>
<path d="M192.286 31.1428C193.143 31.4285 193.429 32.2857 193.714 32.8571L194 37.1428C194 42 192.286 46.8571 189.714 51.1428C193.143 50 196.857 49.4285 200.571 49.7142C204.571 50.2857 208.857 51.4285 212 54C213.143 55.4285 214.857 57.1428 214.571 59.1428L213.429 58.5714L208.571 55.7142C205.714 54.2857 202.286 54 198.857 53.7142C196 54 193.143 54.2857 190.571 55.1428C192.286 55.4285 193.714 56.2857 195.429 57.1428C202 61.1428 208 67.1428 210.571 74.5714C212 78.2857 212.286 82.2857 211.143 86.2857C210.857 86.5714 210.571 87.1428 210.857 87.7142C212.857 93.1428 213.429 98.8571 213.143 104.571C212.857 109.429 211.714 114.286 209.429 118.571C208.286 121.143 206.286 123.429 204.286 125.143C202.857 126.286 200.857 127.143 198.857 126.571C196.857 125.714 195.429 123.714 194.571 121.429C193.429 119.143 193.429 116.286 193.429 113.714C193.714 110.857 194 108 194.857 105.429C192.857 106.571 190.571 108 188.286 108L190.571 105.429C192.286 103.714 193.714 101.714 194.857 99.4285C195.714 96.2857 195.714 93.1428 195.429 90.2857C194.286 83.1428 191.143 76.5714 186.286 71.4285C188.36 78.9736 187.959 86.9851 185.143 94.2857C183.714 98 181.143 101.429 178 104.286C176 106.571 172.857 108.857 169.714 109.429C169.143 109.429 168 109.429 168 108.857C168.857 106.857 170.286 104.857 170.857 102.571C172 99.1428 172 95.4285 171.714 91.7142C171.429 86.5714 170.571 81.7142 169.143 77.1428L168 74V78.8571C167.714 83.4285 166.571 88 164.857 92.2857C163.178 95.6137 160.846 98.5689 157.998 100.974C155.151 103.38 151.847 105.186 148.286 106.286C147.143 106.571 145.714 107.143 144.571 106L147.714 104C150 102.286 152.286 100.857 154.286 98.8571C156.286 96.8571 157.714 94.2857 159.143 92C161.429 87.1428 162.857 82 162.857 76.5714C162.286 79.7142 160.857 82.8571 159.714 85.7142C157.143 90.5714 153.714 95.1428 149.714 99.1428C145.714 103.429 140.857 107.143 135.429 109.143C134 109.714 132.286 110.286 130.571 110L129.714 109.143C129.714 107.143 130.571 105.429 131.143 103.714C132 99.1428 132.857 94.5714 132.857 90C129.044 97.7687 123.224 104.378 116 109.143C112 112.286 107.429 114.571 102.571 116.286C101.429 123.143 100.857 130 101.429 136.857C102.286 144.286 104.857 151.429 110 157.143C110.286 157.714 110.857 158 110.857 158.857C109.429 158.571 108.571 157.714 107.714 156.857C103.604 153.316 100.624 148.647 99.1428 143.429C98.8571 148 99.4286 152.286 99.4286 156.857L99.1428 158.286C96.5714 158.571 94 157.429 91.7143 156.286L83.4286 151.714C80 148.857 76.5714 145.143 74.5714 140.857C72.2857 136 69.7143 131.143 68 126C64.8571 116.857 63.1428 107.429 64.5714 97.7142C65.7143 90.2857 68.2857 83.1428 72.5714 77.1428C78.2857 69.7142 85.4286 63.4285 93.7143 58.8571C106.094 51.7985 119.837 47.4596 134.026 46.1294C148.214 44.7992 162.524 46.5083 176 51.1428C182.286 48.2857 187.714 42.8571 190.571 36.5714L192.286 31.1428Z" fill="black"/>
<path d="M153.714 52.5714C165.429 54.2857 176.571 58.8571 186 66C194 72 200.286 80 204.571 89.1428C208.286 97.1428 210.286 106.286 210 115.143C209.714 119.429 209.143 123.714 207.714 127.714H207.143L207.429 121.714C207.714 113.143 206.857 104.857 203.714 96.8571C200.857 88.2857 195.714 80.5714 189.429 74.2857C177.429 62.8571 161.429 56.5714 144.857 56.2857C134.079 56.1075 123.407 58.4417 113.687 63.1034C103.967 67.765 95.4657 74.626 88.8571 83.1428C80.396 94.576 76.3386 108.675 77.4286 122.857L78 130C80.2857 130 83.4286 130 85.1429 132L84.2857 132.857L79.4286 133.143C76 133.429 72.5714 134.571 70 136.857C67.1577 139.909 65.4439 143.84 65.1429 148C63.7143 157.143 68.5714 166.571 76.2857 171.714C80.8571 174.571 86.5714 176 92 174.286C93.1429 173.714 94.5714 172.857 96 173.429C96.8571 173.714 97.1429 174.571 97.4286 175.429C103.24 187.115 112.131 196.994 123.143 204C125.429 206 128.286 207.714 131.143 209.143C136.286 211.429 142 213.143 147.429 214.571L156.571 216.857C158 217.143 159.143 217.143 160.286 217.714L159.143 218C152 218.571 145.429 217.143 138.571 215.143C135.143 214.286 132 213.143 128.857 211.714C119.88 207.142 111.76 201.052 104.857 193.714L105.429 201.714C105.714 206.571 105.429 211.714 103.714 216.571C102.571 220 100.571 223.429 98.2857 226.286C95.4286 229.143 92 231.714 88.5714 233.714C85.7143 235.714 82.5714 237.714 79.4286 238.857L74.8571 240.286L77.4286 237.714L86.2857 232L92.5714 227.143C97.3917 223.039 100.626 217.379 101.714 211.143C102.286 207.143 102.286 203.143 102.286 198.857V191.143C99.4286 187.143 96 182.857 94.5714 178C89.7143 180.286 83.7143 180 78.8571 177.714C74 175.714 69.7143 172.286 66.5714 168.286C63.1429 163.429 61.1429 158 60.5714 152.286C60 146.571 61.1429 140.857 64.8571 136.286C67.4286 133.429 71.1429 131.143 74.8571 130.286C73.7143 126.286 73.1429 122 73.1429 117.714C73.3779 108.267 75.613 98.9775 79.7006 90.4575C83.7883 81.9375 89.6356 74.3807 96.8571 68.2857C104.659 61.7524 113.772 56.9688 123.58 54.258C133.389 51.5471 143.665 50.9719 153.714 52.5714Z" fill="black"/>
<path d="M189.429 74.2857C195.714 80.5714 200.857 88.2857 203.714 96.8572C206.857 104.857 207.714 113.143 207.429 121.714L207.143 127.714L205.714 132L205.143 135.714L205.714 151.714C205.714 157.714 206 163.714 205.429 169.714L204.571 183.143C204 187.714 202.571 192 200.571 196C197.429 201.143 193.143 205.429 188 208.571C184.286 210.857 180.286 212 176.286 213.143L165.429 216.286L160.571 217.143C160.571 217.429 160.857 217.714 161.429 217.714C163.714 219.143 166.286 219.143 168.857 218.857C168 220.857 167.714 222.857 168.286 225.143C169.143 227.143 171.429 228.286 173.143 229.143C176.571 230.857 180 231.143 183.429 231.714C185.429 233.429 187.429 235.714 188 238.571C188.571 240.857 188.571 243.143 187.429 245.143C186 248 183.429 250.286 180.571 251.714C176.857 254 172.857 255.714 168.571 256.857C147.712 261.851 125.957 261.753 105.143 256.571C100.286 255.429 95.7143 254 91.4285 251.714C88 250 84.8571 248 82.2857 245.429C80.8571 243.429 79.7143 241.429 79.4285 238.857C82.5714 237.714 85.7143 235.714 88.5714 233.714C92 231.714 95.4285 229.143 98.2857 226.286C100.571 223.429 102.571 220 103.714 216.571C105.429 211.714 105.714 206.571 105.429 201.714L104.857 193.714L111.143 200.286C116.571 204.571 122.571 208.857 128.857 211.714C132 213.143 135.143 214.286 138.571 215.143C145.429 217.143 152 218.571 159.143 218L160.286 217.714C159.143 217.143 158 217.143 156.571 216.857L147.429 214.571C142 213.143 136.286 211.429 131.143 209.143L122.857 204.286C119.714 201.714 116.286 199.429 113.429 196.571C106.827 190.58 101.401 183.409 97.4285 175.429C97.1428 174.571 96.8571 173.714 96 173.429C94.5714 172.857 93.1428 173.714 92 174.286C86.5714 176 80.8571 174.571 76.2857 171.714C72.4279 169.168 69.3468 165.607 67.381 161.423C65.4152 157.24 64.6408 152.595 65.1428 148C65.4285 144 67.1428 140 70 136.857C72.5714 134.571 76 133.429 79.4285 133.143L84.2857 132.857L85.1428 132C83.4285 130 80.2857 130 78 130L77.4285 122.857C76.3386 108.675 80.396 94.576 88.8571 83.1429C95.4656 74.626 103.967 67.765 113.687 63.1034C123.407 58.4418 134.079 56.1076 144.857 56.2857C161.429 56.5714 177.429 62.8572 189.429 74.2857Z" fill="white"/>
<path d="M205.714 132C206.571 132 206.571 133.143 206.857 133.714C207.714 136.857 208 140.286 208.286 143.429L208.857 149.429C209.143 155.714 209.429 161.714 209.143 168C208.857 174 208.857 180.571 207.714 186.571C206.5 192.793 203.783 198.623 199.799 203.553C195.815 208.484 190.685 212.364 184.857 214.857C180.571 216.857 176 218 171.143 218.571V222.857C171.429 223.714 172 224 172.571 224.571C176 226.286 179.143 226.857 182.857 227.714C186.286 228.571 189.714 229.143 193.143 230.857C192.286 231.714 191.143 232 190 232C188 232.286 185.714 231.714 183.429 231.714C180 231.143 176.571 230.857 173.143 229.143C171.429 228.286 169.143 227.143 168.286 225.143C167.714 222.857 168 220.857 168.857 218.857C166.286 219.143 163.714 219.143 161.429 217.714C160.857 217.714 160.571 217.429 160.571 217.143L165.429 216.286L176.286 213.143C180.286 212 184.286 210.857 188 208.571C193.143 205.429 197.429 201.143 200.571 196C202.571 192 204 187.714 204.571 183.143L205.429 169.714C206 163.714 205.714 157.714 205.714 151.714L205.143 135.714L205.714 132ZM74.8571 139.714C77.1428 139.714 79.7143 140 81.4286 141.714C82.8571 142.857 84.2857 144.286 84.8571 146C85.1428 146.857 84.8571 147.714 84.2857 148.286L80.5714 150.571C78.5714 152.286 78.5714 156 80.5714 157.714C82.2857 159.143 84.5714 160 86.5714 160.857C87.1428 160.857 88 161.143 88.2857 161.714C88 162.286 87.4286 162.571 86.8571 162.571C84 162.571 81.1428 161.714 78.8571 160C77.4286 159.143 76.5714 157.714 76.2857 156.286C75.7143 154 75.7143 151.429 77.4286 149.429C78.5714 147.714 80.5714 146.857 82.5714 146C81.4286 144.571 80.5714 142.857 78.5714 142.286C76.5714 141.429 74.2857 141.429 72.2857 140.857L74.8571 139.714Z" fill="black"/>
<path d="M191.714 120.857L195.429 122.857L198.286 125.714C199.714 126.571 201.429 126.286 203.143 126.286C202.286 128 200.286 128 198.571 128C195.429 128.286 192.857 126.857 190 126.857L191.714 128.286C192.857 129.429 193.143 131.429 193.143 132.857C192.857 134 192.571 135.143 191.714 136C190 138.571 185.714 138.857 184 136.286C182.571 134.571 182.571 132.571 183.714 130.571C182 132.286 180.571 133.714 179.429 135.714C178.857 136 178 137.143 177.429 136.286C176.857 135.143 177.429 133.714 178 132.286C178.857 130.286 180 128 181.714 126.286C183.714 124.286 185.714 122.571 188.571 122L187.429 121.429C188.571 120.571 190.286 120.571 191.714 120.857ZM132.286 122L130.571 123.429C128.857 124.286 127.429 125.429 126.286 126.571C128.571 125.714 130.571 124.857 132.857 124.571C136.571 123.714 140.286 124.286 143.429 126C146 126.857 148 128.286 149.714 130.286C151.143 132 152.286 134 152.286 136.286C152.286 136.857 152 137.429 151.143 137.429L149.143 135.429L146.571 133.714C146.571 135.143 146 136.857 145.143 138C144 140.286 141.429 141.429 138.857 140.857C136.286 140.571 134.286 138.286 134 135.714C133.429 133.429 134.286 131.143 135.714 129.429C132 129.429 129.429 130.857 126.571 132.571C123.714 134 120.857 134 117.714 133.714C116.286 133.714 115.143 133.429 114 132.857L113.429 132.286C115.429 132 117.714 131.714 119.429 130.857L120.857 129.714C122.571 125.143 127.714 122.286 132.286 122Z" fill="black"/>
<path d="M147.143 92.8571C149.429 93.1428 151.714 93.4285 153.714 94.5713C155.143 95.7142 156 97.1428 156.571 98.5713L156 99.1428C155.429 99.4285 154.857 98.8571 154.286 98.5713C151.714 96.8571 148.286 96.5713 145.143 96.5713C142.571 96.5713 140 97.1428 137.429 98.2856C135.143 99.1428 132.571 99.7142 130.571 100.857L125.143 102.857C121.429 104.286 117.429 104.286 113.714 105.714C111.714 106.571 110.286 108.286 108.571 109.428L106 112C106.286 109.714 107.429 107.428 108.857 105.714L112.571 102C114.571 100.286 117.429 99.4285 120 98.8571C122.857 98.2856 125.429 97.1428 128.286 96.2856L133.714 94.8571C136 94.2856 138 93.4285 140.286 93.1428L147.143 92.8571ZM194.571 96.8571C196.571 97.1428 198.571 97.9999 200.857 97.9999V98.8571C198.857 100.571 196.571 101.428 194 101.714C190.571 102.286 186.571 101.428 183.429 102.571L182 103.428C179.429 106.286 178 109.714 176.286 113.143C175.714 111.143 177.143 108.857 177.714 106.857C178.286 104.857 179.714 103.428 180.286 101.428C181.429 98.8571 184.286 96.8571 187.143 96.8571H194.571Z" fill="black"/>
<path d="M196 147.143C196.857 146.571 198 147.143 198 148.286C198 149.143 197.143 149.429 196.286 149.429C195.429 149.143 195.143 147.714 196 147.143ZM107.429 149.429C108 149.143 108.857 149.429 109.429 149.714C110 150.571 110 151.714 109.429 152.571C108.571 153.143 107.714 153.143 106.857 152.571C106 151.714 106.286 150 107.429 149.429ZM181.143 149.714C181.429 149.429 182.286 149.429 182.571 150C182.571 150.571 182.571 151.143 182 151.143C181.143 151.429 180.571 150.286 181.143 149.714ZM188.286 149.714C189.714 149.143 191.143 150.571 190.571 151.714C190 152.857 188.571 153.429 187.714 152.571C186.857 151.714 187.143 150.286 188.286 149.714ZM138.571 150.286C139.143 150 140.286 150.571 140 151.143C140.286 151.714 139.714 152.286 138.857 152.286C138 152 138 150.857 138.571 150.286ZM200.286 150.571C201.143 150 202.286 150.571 202.286 151.429C202.571 152.286 201.429 152.857 200.571 152.571C200 152.286 200 151.143 200.286 150.571ZM120.571 150.571C122 150.571 122.857 152.286 122.286 153.429C122 154 121.143 154.286 120.571 154.571C120 154.286 119.143 154 118.857 153.429C118.286 152.286 119.429 150.571 120.571 150.571ZM99.7143 152.857C100.857 152.571 101.714 153.143 101.714 154.286C101.429 155.429 100.286 155.714 99.4286 155.143C98.8571 154.571 98.8571 153.429 99.7143 152.857ZM194.286 154.286C195.429 153.714 196.571 154.571 196.571 155.714C196.571 156.857 195.143 157.714 194.286 156.857C193.429 156.286 193.429 154.857 194.286 154.286ZM131.429 155.429C132.286 155.429 132.286 156 132.857 156.571L132.286 157.429C131.429 158.286 130.286 157.714 130 156.857C130 156 130.571 155.143 131.429 155.429ZM112.571 159.143C113.714 159.143 114.571 159.714 114.857 160.857C114.857 162 114 163.143 112.857 163.143C112 163.143 111.143 162.571 110.857 161.714C110.571 160.571 111.429 159.143 112.571 159.143Z" fill="black"/>
<path d="M173.429 127.143H173.714L174.571 131.429L175.429 138.857L177.714 142.571L179.429 146C180 147.429 180 148.857 180.857 150C181.714 151.429 182.286 152.857 182.286 154.571C182.286 157.143 180.571 159.429 178.286 160.286L172.857 162.571C171.429 163.429 170.286 164 168.571 164C167.143 164 165.429 164 164.857 162.571C164.286 162 164.857 161.429 165.429 161.143L168.857 160.286L173.429 158.857L177.143 157.429C178.857 156.857 179.714 155.143 179.143 153.429L177.714 151.143L175.714 146.286L173.714 140.857C172.571 138.571 172 136 172.286 133.429C172.286 131.429 172.571 129.143 173.429 127.143Z" fill="black"/>
<path d="M144.857 176.857C147.143 177.714 149.143 178.286 151.143 179.429C152.286 179.714 153.143 180.286 154.286 180.286L158 179.714C159.429 179.429 160.857 179.429 162 180.571C164 182 164.286 185.429 162.571 187.143C160.857 188.857 158 189.143 155.714 189.714C154 190 152 190 150.286 189.143C149.143 188.857 148.571 188.286 148 187.429L149.429 186.286C151.143 185.714 153.143 186.571 154.857 186.286L159.143 185.429L160.571 184.286C160.571 183.714 160.286 182.857 159.429 182.857C157.429 182.571 155.714 184 153.714 183.714C151.143 183.429 149.143 181.714 146.571 180.857C145.429 180.286 144 179.429 142.571 179.429C141.429 179.429 140.857 180.286 140.571 181.143C140 182.286 139.714 183.714 140.286 184.857C139.714 185.714 138.857 185.143 138.286 184.571C137.143 182.286 138 179.143 140 177.429C141.429 176.571 143.429 176.571 144.857 176.857Z" fill="black"/>
<path d="M192.286 31.4286L193.429 32.2857C194 33.7143 194 35.4286 194 36.8572C194 42 192.286 46.8572 189.714 51.1429C193.429 50 197.143 49.4286 201.143 50C204.857 50.5714 209.143 51.7143 212 54.5714C213.429 55.7143 214.857 57.4286 214.571 59.1429L212.857 58.2857C210.857 56.8572 208.857 55.7143 206.571 55.1429C201.143 53.4286 195.714 53.7143 190.571 55.1429L195.429 57.4286C202 61.1429 207.429 66.5714 210.286 73.4286C211.714 77.1429 212.286 80.8572 211.429 84.5714C210.571 88.2857 208.857 92 206.571 94.8572C202.66 99.8837 197.683 103.982 192 106.857C190.857 107.714 189.429 108.286 188 108.286L190.857 104.857C193.429 102.857 195.143 99.7143 195.429 96.5714C196 92.8572 195.429 89.1429 194.286 85.7143C192.857 80.2857 190 75.7143 186.286 71.4286C188.571 79.1429 188 87.4286 185.143 94.5714C183.429 98.5714 180.857 102 177.714 104.857C175.714 106.857 173.143 108.571 170.286 109.429C169.429 109.429 168.571 109.714 168 109.143L170 105.429C171.143 102.857 171.714 100.286 171.714 97.7143C172.286 91.4286 171.143 85.1429 169.714 79.1429L168 74C168.286 79.7143 167.714 85.1429 165.714 90.2857C164.224 94.1063 161.878 97.5348 158.857 100.308C155.836 103.082 152.22 105.126 148.286 106.286C147.143 106.571 145.714 107.143 144.571 106C146.286 104.857 148 104 149.429 102.571C152 100.857 154.286 98.8572 156.286 96.5714L159.429 91.4286C161.714 86.8572 162.857 81.7143 162.857 76.5714C162.286 80 160.857 83.1429 159.429 86.2857C156.286 91.7143 152.571 96.5714 148 100.857C144 104.857 139.429 108 134 109.714C132.857 110 132 110.286 130.857 110L129.714 109.429C129.714 107.429 130.571 105.714 130.857 104C132 99.4286 132.857 94.8572 132.857 90.2857C129.089 97.669 123.602 104.038 116.857 108.857C112.286 112 107.714 114.571 102.571 116.571C100.974 124.964 100.878 133.574 102.286 142C103.429 147.714 106.286 153.143 110 157.429L111.143 158.857C109.429 158.857 108.571 157.714 107.429 156.857C103.47 153.356 100.595 148.796 99.1429 143.714C98.8572 147.143 99.1429 150.571 99.4286 154.286C99.4286 155.714 99.7143 157.143 99.1429 158.571L98 157.714L94.8572 155.714C92 153.714 89.4286 151.714 87.1429 149.143C84 145.714 81.7143 141.429 80.5714 136.857L79.7143 135.143C75.7143 131.429 72 127.143 69.4286 122.286C66.5714 116.857 64.8572 111.143 64.5714 105.143C64 96 66.5714 87.1429 71.4286 79.4286C76.8572 70.5714 85.1429 63.7143 94 58.5714C106.08 51.8399 119.411 47.6569 133.171 46.2809C146.931 44.9049 160.827 46.3652 174 50.5714C174.857 50.8572 175.714 51.7143 176.857 51.1429C180.44 49.3283 183.61 46.7927 186.166 43.6951C188.723 40.5976 190.612 37.005 191.714 33.1429L192.286 31.4286Z" fill="black"/>
</g>
</g>
<defs>
<clipPath id="clip0_14_20">
<rect width="280" height="280" rx="50" fill="white"/>
</clipPath>
</defs>
</svg>
