<svg width="280" height="280" viewBox="0 0 280 280" fill="none" xmlns="http://www.w3.org/2000/svg">
<rect width="280" height="280" rx="50" fill="#8860D0"/>
<path d="M72.808 190.328C67.2613 190.328 63.2933 188.749 60.904 185.592C58.5147 182.349 57.32 177.571 57.32 171.256C57.32 164.856 60.008 146.808 65.384 117.112L58.6 103.416C68.2427 97.1867 77.032 94.072 84.968 94.072C91.5387 94.072 94.824 98.0827 94.824 106.104C94.824 108.749 93.16 118.605 89.832 135.672C86.5893 152.653 84.968 162.765 84.968 166.008C84.968 174.285 86.248 180.472 88.808 184.568C83.688 188.408 78.3547 190.328 72.808 190.328ZM204.993 190.328C199.446 190.328 195.478 188.749 193.089 185.592C190.7 182.349 189.505 177.613 189.505 171.384C189.505 165.155 191.51 150.819 195.521 128.376H193.473C188.268 135.203 183.958 143.352 180.545 152.824C177.132 162.296 175.041 170.829 174.273 178.424C170.092 182.349 165.27 184.312 159.809 184.312C157.59 184.312 155.628 183.544 153.921 182.008C152.3 180.387 150.678 177.613 149.057 173.688C145.9 165.752 143.638 150.648 142.273 128.376H140.225C136.044 146.723 133.953 159.651 133.953 167.16C133.953 174.669 135.233 180.472 137.793 184.568C132.673 188.408 127.34 190.328 121.793 190.328C116.246 190.328 112.278 188.749 109.889 185.592C107.5 182.349 106.305 177.571 106.305 171.256C106.305 164.856 108.993 146.808 114.369 117.112L107.585 103.416C117.228 97.1867 126.017 94.072 133.953 94.072C137.452 94.072 140.396 94.456 142.785 95.224C145.26 95.9067 147.606 97.272 149.825 99.32C152.129 101.368 154.006 104.227 155.457 107.896C158.785 116.173 161.174 128.248 162.625 144.12H164.161C168.598 131.064 174.742 119.843 182.593 110.456C186.86 105.421 191.937 101.453 197.825 98.552C203.798 95.6507 210.241 94.2 217.153 94.2C223.724 94.2 227.009 98.168 227.009 106.104C227.009 108.749 225.345 118.605 222.017 135.672C218.774 152.653 217.153 162.765 217.153 166.008C217.153 174.285 218.433 180.472 220.993 184.568C215.873 188.408 210.54 190.328 204.993 190.328Z" fill="white"/>
</svg>
