<svg width="280" height="280" viewBox="0 0 280 280" fill="none" xmlns="http://www.w3.org/2000/svg">
<g clip-path="url(#clip0_14_41)">
<path fill-rule="evenodd" clip-rule="evenodd" d="M135.016 48.216C134.831 48.4008 134.68 48.6626 134.68 48.7977C134.68 49.1449 133.237 50.5358 132.644 50.7598C132.371 50.8627 132.063 51.1707 131.96 51.4437C131.857 51.7167 131.432 52.283 131.016 52.7016L130.26 53.4632L129.54 52.7436C129.144 52.3474 128.744 51.7846 128.651 51.4927C128.064 49.6433 126.28 50.7591 126.28 52.976C126.28 54.4411 126.182 54.7414 125.47 55.4533L124.66 56.2632L123.93 55.5338C123.311 54.915 123.2 54.5559 123.2 53.1818C123.2 50.9985 122.849 50.68 120.436 50.68C118.299 50.68 117.88 50.9418 117.88 52.276C117.88 53.0607 117.98 53.2 118.542 53.2C119.627 53.2 120.783 54.537 120.201 55.1194C119.947 55.3728 119.587 55.7333 119.399 55.9209C118.937 56.3829 117.6 55.0606 117.6 54.1415C117.6 53.6326 117.447 53.48 116.938 53.48C116.222 53.48 114.924 52.3509 114.651 51.4927C114.335 50.4952 112.28 50.5673 112.28 51.576C112.28 51.9407 110.855 53.3288 110.244 53.5598C109.971 53.6627 109.663 53.9707 109.56 54.2437C108.939 55.8887 108.024 56.28 104.798 56.28C101.206 56.28 101.08 56.3584 101.08 58.5977C101.08 60.039 100.98 60.3435 100.27 61.0533L99.4595 61.8632L98.7301 61.1338C98.1113 60.515 98 60.1559 98 58.7818C98 57.0766 97.566 56.28 96.6357 56.28C95.7915 56.28 95.48 56.9044 95.48 58.5977C95.48 60.41 94.486 61.88 93.2617 61.88C92.8592 61.88 92.68 62.0592 92.68 62.4617C92.68 62.7816 92.3153 63.4074 91.8701 63.8533L91.0595 64.6632L90.3371 63.9401C89.3081 62.9118 90.1404 61.6 91.8218 61.6C92.6002 61.6 92.7045 57.4644 91.945 56.7049C91.3689 56.1288 90.4491 56.2569 90.0487 56.9695C89.5993 57.7689 88.417 58.9435 87.8437 59.1598C87.5707 59.2627 87.2627 59.5707 87.1598 59.8437C86.6537 61.1835 85.5036 61.88 83.7977 61.88C81.7453 61.88 81.48 62.1453 81.48 64.1977C81.48 65.9036 80.7835 67.0537 79.4437 67.5598C79.1707 67.6627 78.8627 67.9707 78.7598 68.2437C78.5183 68.8835 77.2835 70.1183 76.6437 70.3598C76.3707 70.4627 76.0627 70.7707 75.9598 71.0437C75.7435 71.6163 74.5703 72.7979 73.7695 73.2501C73.283 73.5245 73.2109 73.9193 73.1402 76.7109C73.0604 79.8847 72.4031 81.48 71.176 81.48C70.1673 81.48 70.0952 83.5345 71.0927 83.8509C71.3846 83.944 71.9474 84.3437 72.3436 84.7399L73.0632 85.4595L72.2911 86.2001C71.8662 86.6068 71.2712 87.0793 70.9695 87.2487C70.5397 87.4902 70.4011 87.9165 70.3346 89.1975C70.2177 91.4333 70.3808 91.8967 71.4994 92.4987C72.0293 92.7836 72.6936 93.4458 72.9757 93.9701C73.2578 94.4944 73.6995 94.99 73.9564 95.0712C74.2133 95.1531 74.7474 95.5437 75.1436 95.9399L75.8632 96.6595L75.0911 97.4001C74.6662 97.8068 74.0712 98.2793 73.7695 98.4487C72.7496 99.0227 72.8504 103.121 73.8927 103.451C74.7509 103.724 75.88 105.022 75.88 105.739C75.88 106.247 76.0326 106.4 76.5415 106.4C77.5467 106.4 78.7829 107.737 78.2607 108.259C78.0402 108.48 77.6797 108.84 77.4592 109.061C76.937 109.583 75.6 108.347 75.6 107.342C75.6 106.595 74.0663 106.366 73.416 107.016C72.5473 107.885 73.1794 112 74.1818 112C75.0358 112 75.88 113.54 75.88 115.098C75.88 116.624 76.3098 117.6 76.9818 117.6C77.1036 117.6 77.532 117.928 77.9338 118.33L78.6632 119.06L77.8533 119.87C77.1414 120.582 76.8411 120.68 75.376 120.68C73.1591 120.68 72.0433 122.464 73.8927 123.051C76.8754 123.998 76.7886 130.352 73.7695 132.049C72.1644 132.95 73.2816 134.4 75.5818 134.4C76.9559 134.4 77.315 134.511 77.9338 135.13L78.6632 135.86L77.8911 136.6C77.4662 137.007 76.8712 137.479 76.5695 137.65C76.0641 137.935 76.0137 138.326 75.943 142.509L75.866 147.057L75.0918 147.799C74.6662 148.206 74.0712 148.679 73.7695 148.849C72.7496 149.423 72.8504 153.521 73.8927 153.851C76.6325 154.721 76.7074 162.68 73.976 162.68C72.9673 162.68 72.8952 164.735 73.8927 165.051C74.1846 165.144 74.7474 165.544 75.1436 165.94L75.8632 166.66L75.0911 167.4C74.6662 167.807 74.0712 168.279 73.7695 168.449C72.7496 169.023 72.8504 173.121 73.8927 173.451C74.1846 173.544 74.7474 173.944 75.1436 174.34L75.8632 175.06L75.0533 175.87C74.6074 176.315 74.123 176.68 73.976 176.68C72.9673 176.68 72.8952 178.735 73.8927 179.051C74.7509 179.324 75.88 180.622 75.88 181.339C75.88 181.847 76.0326 182 76.5415 182C79.3905 182 79.4108 186.446 76.5695 188.05C76.0655 188.334 76.0137 188.728 75.9402 192.81C75.8443 198.114 75.8681 198.236 77.0994 198.899C77.6293 199.184 78.2936 199.846 78.5757 200.37C78.8578 200.894 79.2995 201.39 79.5564 201.471C83.1915 202.626 81.8223 207.48 77.8617 207.48H75.88V209.462C75.88 211.537 75.4537 212.301 73.7695 213.249C72.7496 213.823 72.8504 217.921 73.8927 218.251C74.1846 218.344 74.7474 218.744 75.1436 219.14L75.8632 219.86L75.0911 220.6C74.6662 221.007 74.0712 221.479 73.7695 221.65C73.0037 222.082 72.7853 228.425 73.5119 229.151C74.2651 229.905 78.4 229.795 78.4 229.022C78.4 227.34 79.7118 226.508 80.7401 227.537L81.4632 228.26L80.6533 229.07C80.2074 229.515 79.5816 229.88 79.2617 229.88C78.8592 229.88 78.68 230.059 78.68 230.462C78.68 231.045 77.2765 232.68 76.776 232.68C75.5251 232.68 75.7596 234.578 77.0994 235.299C77.6293 235.584 78.2831 236.227 78.5526 236.727C78.8221 237.228 79.4423 237.852 79.9309 238.116C80.4195 238.379 81.053 238.996 81.3386 239.487C82.1177 240.827 81.8524 240.791 91.07 240.796C101.123 240.801 100.8 240.889 100.8 238.127C100.8 235.954 101.554 235.2 103.727 235.2C105.839 235.2 106.4 234.639 106.4 232.527C106.4 230.901 106.476 230.775 108.464 229.131L109.2 228.523V221.241C109.2 213.847 109.096 213.08 108.098 213.08C107.261 213.08 106.4 211.539 106.396 210.032C106.391 208.235 106.299 208.044 105.117 207.356C103.254 206.273 103.318 205.871 105.664 203.931C106.301 203.405 106.4 203.108 106.4 201.734C106.4 200.194 107.431 198.52 108.38 198.52C109.487 198.52 109.208 196.843 107.993 196.188C106.043 195.138 106.105 194.682 108.464 192.731C109.79 191.635 109.476 185.08 108.098 185.08C107.275 185.08 106.4 183.539 106.4 182.089C106.4 180.506 106.484 180.368 108.464 178.731C109.11 178.198 109.2 177.916 109.2 176.441C109.2 174.252 108.837 173.88 106.698 173.88C104.067 173.88 102.803 172.106 104.708 171.086C105.002 170.929 106.521 170.8 108.083 170.8C110.808 170.8 110.947 170.771 111.531 170.064C113.471 167.718 113.873 167.654 114.956 169.517C115.697 170.791 115.697 170.791 120.431 170.796C124.886 170.8 126.28 171.206 126.28 172.498C126.28 173.331 127.235 173.6 130.182 173.6C133.367 173.6 134.324 173.998 134.809 175.524C134.89 175.781 135.376 176.217 135.888 176.492C136.4 176.768 137.053 177.396 137.339 177.887C138.288 179.519 141.182 179.854 142.331 178.464C143.968 176.484 144.105 176.4 145.689 176.4C146.947 176.4 147.327 176.523 147.934 177.13L148.663 177.86L147.853 178.67C147.407 179.115 146.923 179.48 146.776 179.48C145.537 179.48 145.756 181.376 147.078 182.087C147.596 182.366 148.253 182.996 148.539 183.487C149.245 184.702 149.428 184.791 151.231 184.796C152.739 184.8 154.28 185.661 154.28 186.498C154.28 187.17 155.256 187.6 156.782 187.6C158.48 187.6 159.618 188.292 160.024 189.574C160.115 189.858 160.422 190.166 160.706 190.256C161.97 190.656 162.68 191.804 162.684 193.449C162.689 195.248 162.779 195.436 163.972 196.129C164.452 196.408 165.072 197.028 165.351 197.508C166.065 198.736 166.204 198.791 168.63 198.796C170.638 198.8 170.8 198.757 170.8 198.222C170.8 196.54 172.112 195.708 173.14 196.737L173.863 197.46L173.053 198.27C172.607 198.715 171.982 199.08 171.662 199.08C171.122 199.08 171.08 199.24 171.08 201.3C171.08 204.084 171.335 204.4 173.582 204.4C175.14 204.4 176.68 205.244 176.68 206.098C176.68 206.597 177.612 207.2 178.38 207.2C179.022 207.2 179.2 207.075 179.2 206.622C179.2 204.927 180.583 204.051 181.574 205.12L182.261 205.862L181.452 206.671C181.007 207.116 180.382 207.48 180.062 207.48C179.062 207.48 179.192 211.737 180.214 212.437C181.945 213.625 182.28 214.187 182.28 215.908C182.28 217.347 182.364 217.592 183.014 218.037C184.745 219.225 185.08 219.787 185.08 221.508C185.08 222.947 185.164 223.192 185.814 223.637C187.103 224.522 187.88 225.463 187.88 226.141C187.88 226.661 188.031 226.8 188.593 226.8C189.83 226.8 190.642 228 190.737 229.968C190.814 231.557 190.887 231.726 191.75 232.306C192.261 232.65 193.049 233.442 193.502 234.065C194.306 235.176 194.36 235.2 196.015 235.2C198.327 235.2 199.08 235.957 199.08 238.277C199.08 240.89 200.377 241.519 201.62 239.509C202.746 237.686 203.301 237.728 204.78 239.75C205.692 240.997 205.928 241.035 206.731 240.064C208.559 237.854 208.119 238 212.927 238C218.16 238 218.4 237.882 218.4 235.327C218.4 233.706 218.363 233.769 220.394 231.94C220.76 231.61 221.392 230.949 221.798 230.47C222.461 229.688 222.694 229.6 224.108 229.6C225.634 229.6 226.8 229.003 226.8 228.22C226.8 227.903 226.005 227.08 225.698 227.08C224.073 227.08 223.944 224.986 225.508 224.02C226.916 223.15 227.135 221.993 225.962 221.621C225.684 221.533 225.129 221.133 224.728 220.732L224 220.004V214.182C224 207.374 224.04 207.48 221.498 207.48C219.94 207.48 218.4 206.636 218.4 205.782C218.4 205.113 217.423 204.68 215.913 204.68C214.153 204.68 213.456 204.259 212.656 202.712C212.419 202.255 212.064 201.88 211.866 201.88C210.942 201.88 210 200.344 210 198.836C210 197.259 209.641 196.28 209.063 196.28C207.822 196.28 207.2 194.795 207.2 191.836C207.2 188.972 206.941 187.88 206.263 187.88C205.844 187.88 204.611 186.617 204.145 185.71C203.86 185.158 203.603 185.08 202.063 185.08C200.206 185.08 199.407 184.587 198.545 182.91C198.366 182.564 198.059 182.28 197.863 182.28C197.444 182.28 196.211 181.017 195.745 180.11C195.566 179.764 195.259 179.48 195.063 179.48C194.644 179.48 193.411 178.217 192.945 177.31C192.766 176.964 192.459 176.68 192.263 176.68C191.841 176.68 190.61 175.414 190.135 174.493C189.727 173.699 188.511 173.744 188.048 174.57C187.879 174.871 187.41 175.463 187.007 175.883L186.275 176.649L185.537 175.879C184.932 175.247 184.8 174.846 184.8 173.636C184.8 171.371 184.538 171.08 182.496 171.08C179.911 171.08 179.2 170.314 179.2 167.528C179.2 165.562 179.173 165.48 178.538 165.48C177.558 165.48 176.335 164.164 176.693 163.495C177.034 162.86 177.843 162.4 178.622 162.4C179.273 162.4 179.422 161.378 178.91 160.422C178.65 159.935 178.298 159.88 175.448 159.88C170.899 159.88 169.537 158.533 172.337 156.802C172.878 156.468 173.32 156.092 173.32 155.967C173.32 154.698 174.95 154 177.912 154C180.507 154 180.951 153.929 181.44 153.44C182.225 152.655 182.193 151.48 181.385 151.48C180.438 151.48 179.157 150.125 179.498 149.486C180.28 148.025 182.28 148.784 182.28 150.541C182.28 151.486 183.525 151.439 184.331 150.464C185.697 148.813 186.208 148.4 186.887 148.4C187.421 148.4 187.6 148.254 187.6 147.822C187.6 147.029 188.063 146.232 188.729 145.875C189.423 145.504 190.68 146.707 190.68 147.741C190.68 148.672 194.528 148.752 195.44 147.84C196.225 147.055 196.193 145.88 195.385 145.88C194.438 145.88 193.157 144.525 193.498 143.886C194.28 142.425 196.28 143.184 196.28 144.941C196.28 145.886 197.525 145.839 198.331 144.864C199.008 144.046 199.791 143.243 200.794 142.34C201.16 142.01 201.801 141.339 202.217 140.849C203.111 139.798 203.418 139.893 204.662 141.61C205.638 142.958 205.854 143.026 206.64 142.24C207.066 141.814 207.2 141.307 207.2 140.112C207.2 138.604 208.237 136.92 209.167 136.92C209.292 136.92 209.663 136.485 209.992 135.954C210.32 135.423 211.01 134.728 211.526 134.408C212.866 133.58 213.093 131.88 211.863 131.88C211.29 131.88 210 130.367 210 129.695C210 129.239 209.833 129.08 209.353 129.08C208.688 129.08 207.519 128.027 206.945 126.91C206.766 126.564 206.459 126.28 206.263 126.28C206.066 126.28 205.552 125.911 205.12 125.46L204.334 124.641L205.054 123.92C205.656 123.318 206.032 123.2 207.341 123.2C209.652 123.2 210.28 123.957 210.28 126.741V128.8H212.401C214.35 128.8 214.572 128.741 215.131 128.064C215.904 127.129 216.729 126.305 217.664 125.531C218.31 124.998 218.4 124.716 218.4 123.241C218.4 121.052 218.037 120.68 215.898 120.68C213.267 120.68 212.003 118.906 213.908 117.886C214.202 117.729 215.711 117.6 217.262 117.6C219.707 117.6 220.154 117.526 220.64 117.04C221.691 115.989 221.268 112.28 220.098 112.28C218.806 112.28 218.4 110.886 218.396 106.432C218.391 101.697 218.391 101.697 217.117 100.956C215.253 99.8732 215.318 99.4714 217.664 97.531C219.198 96.2626 218.296 95.48 215.3 95.48H213.08V97.4617C213.08 99.2698 213.01 99.5134 212.277 100.246L211.475 101.049L210.737 100.279C209.171 98.644 210.086 95.2 212.087 95.2C212.745 95.2 212.8 95.1034 212.8 93.94V92.68H210.785C208.545 92.68 207.2 91.8729 207.2 90.5275C207.2 90.0375 207.043 89.88 206.553 89.88C205.025 89.88 204.4 88.5913 204.4 85.442C204.4 82.2612 204.922 81.2 206.487 81.2H207.2V77.6818C207.2 73.6071 207.022 73.08 205.65 73.08C204.855 73.08 204.68 73.185 204.68 73.6617C204.68 73.9816 204.319 74.6046 203.877 75.0456L203.075 75.8485L202.304 75.0442L201.534 74.2406L202.254 73.5203C202.651 73.1241 203.295 72.8 203.687 72.8C204.388 72.8 204.4 72.7643 204.4 70.6818C204.4 67.7187 204.226 67.48 202.063 67.48C199.688 67.48 198.8 66.6512 198.8 64.4364C198.8 62.1621 198.542 61.88 196.463 61.88C194.602 61.88 193.808 61.3879 192.935 59.6932C192.527 58.8994 191.311 58.9435 190.848 59.7695C190.679 60.0712 190.21 60.6627 189.807 61.0834L189.075 61.8485L188.337 61.0792C187.732 60.4471 187.6 60.046 187.6 58.8364C187.6 56.3381 187.515 56.28 183.839 56.28H180.658L179.789 55.2902C179.311 54.7456 178.92 54.1849 178.92 54.0435C178.92 53.9021 178.495 53.585 177.976 53.3386C177.457 53.0922 176.795 52.451 176.506 51.9134C175.778 50.5617 173.88 50.3181 173.88 51.576C173.88 51.723 173.515 52.2074 173.07 52.6533L172.26 53.4632L171.53 52.7338C171.128 52.332 170.8 51.9036 170.8 51.7818C170.8 50.8445 169.921 50.68 164.9 50.68C160.005 50.68 159.88 50.6947 159.88 51.2617C159.88 54.2087 151.997 54.4726 151.071 51.5564C150.99 51.2995 150.494 50.8578 149.97 50.5757C149.446 50.2936 148.784 49.6293 148.499 49.0994C147.375 47.0127 145.88 47.6273 145.88 50.176C145.88 51.6411 145.782 51.9414 145.07 52.6533L144.26 53.4632L143.53 52.7338C142.911 52.115 142.8 51.7559 142.8 50.3818C142.8 48.0816 141.35 46.9644 140.449 48.5695C140.279 48.8712 139.807 49.4662 139.4 49.8911L138.66 50.6632L137.93 49.9338C137.528 49.532 137.2 49.1036 137.2 48.9818C137.2 48.1397 135.639 47.593 135.016 48.216ZM154.616 48.216C153.407 49.4249 154.64 50.4 157.38 50.4H159.6V49.5803C159.6 48.0494 155.817 47.0148 154.616 48.216ZM139.534 56.7301L140.263 57.4595L139.453 58.2701C137.877 59.8458 133.762 58.8357 134.69 57.1004C135.411 55.755 138.335 55.531 139.534 56.7301ZM145.517 57.092C145.732 57.4357 145.618 57.7185 145.027 58.3002L144.256 59.0597L143.535 58.3387C142.969 57.7731 142.873 57.5057 143.09 57.1004C143.707 55.9482 144.801 55.944 145.517 57.092ZM162.317 57.092C162.532 57.4357 162.417 57.7185 161.827 58.3002L161.056 59.0597L160.335 58.3387C159.769 57.7731 159.673 57.5057 159.89 57.1004C160.507 55.9482 161.601 55.944 162.317 57.092ZM176.317 57.092C176.532 57.4357 176.417 57.7185 175.827 58.3002L175.056 59.0597L174.335 58.3387C173.769 57.7731 173.673 57.5057 173.89 57.1004C174.507 55.9482 175.601 55.944 176.317 57.092ZM128.717 59.892C128.932 60.2357 128.818 60.5185 128.227 61.1002L127.456 61.8597L126.735 61.1387C126.169 60.5731 126.073 60.3057 126.29 59.9004C126.907 58.7482 128.001 58.744 128.717 59.892ZM170.717 59.892C170.932 60.2357 170.817 60.5185 170.227 61.1002L169.456 61.8597L168.735 61.1387C168.169 60.5731 168.073 60.3057 168.29 59.9004C168.907 58.7482 170.001 58.744 170.717 59.892ZM184.603 59.7338C184.964 60.2854 184.932 60.4072 184.236 61.0925L183.471 61.845L182.703 61.0428L181.934 60.2406L182.652 59.5231C183.441 58.7342 183.988 58.793 184.603 59.7338ZM159.517 62.692C159.732 63.0357 159.617 63.3185 159.027 63.9002L158.256 64.6597L157.535 63.9387C156.969 63.3731 156.873 63.1057 157.09 62.7004C157.707 61.5482 158.801 61.544 159.517 62.692ZM179.043 62.594C179.283 62.9601 179.48 63.5166 179.48 63.8302C179.48 64.2544 179.663 64.4 180.193 64.4C180.602 64.4 181.195 64.7115 181.582 65.1287L182.258 65.8581L181.499 66.6414L180.74 67.4254L179.97 66.7002C179.547 66.3012 179.2 65.6838 179.2 65.3275C179.2 64.8333 179.043 64.68 178.538 64.68C177.563 64.68 176.335 63.364 176.69 62.7004C177.327 61.5118 178.305 61.4677 179.043 62.594ZM173.517 68.292C173.732 68.6357 173.617 68.9185 173.027 69.5002L172.256 70.2597L171.535 69.5387C170.969 68.9731 170.873 68.7057 171.09 68.3004C171.707 67.1482 172.801 67.144 173.517 68.292ZM190.243 68.194C191.097 69.496 190.852 74.0705 189.877 75.0456L189.075 75.8485L188.337 75.0792C187.246 73.9396 187.209 68.9654 188.285 67.8902C189.055 67.1202 189.595 67.2042 190.243 68.194ZM134.296 71.1053C134.698 71.6191 133.341 73.08 132.462 73.08C132.059 73.08 131.88 73.2592 131.88 73.6617C131.88 73.9816 131.515 74.6074 131.07 75.0533L130.26 75.8632L129.537 75.1401C128.508 74.1118 129.34 72.8 131.022 72.8C131.454 72.8 131.6 72.6208 131.6 72.0874C131.6 70.3143 133.218 69.7249 134.296 71.1053ZM195.803 70.9338C196.164 71.4854 196.132 71.6072 195.436 72.2925L194.671 73.045L193.903 72.2428L193.134 71.4406L193.852 70.7231C194.641 69.9342 195.188 69.993 195.803 70.9338ZM148.296 73.9053C148.698 74.4191 147.341 75.88 146.462 75.88C146.059 75.88 145.88 76.0592 145.88 76.4617C145.88 76.7816 145.515 77.4074 145.07 77.8533L144.26 78.6632L143.537 77.9401C142.508 76.9118 143.34 75.6 145.022 75.6C145.454 75.6 145.6 75.4208 145.6 74.8874C145.6 73.1143 147.218 72.5249 148.296 73.9053ZM179.003 73.7338C179.364 74.2861 179.332 74.4079 178.628 75.1002L177.856 75.8597L177.135 75.1387C176.569 74.5731 176.473 74.3057 176.69 73.9004C177.312 72.7391 178.305 72.6677 179.003 73.7338ZM117.517 76.692C117.732 77.0357 117.618 77.3185 117.027 77.9002L116.256 78.6597L115.535 77.9387C114.969 77.3731 114.873 77.1057 115.09 76.7004C115.707 75.5482 116.801 75.544 117.517 76.692ZM137.121 76.72C137.308 76.951 137.466 77.4235 137.471 77.77C137.478 78.2432 137.645 78.4 138.142 78.4C138.761 78.4 140.28 79.6061 140.28 80.0982C140.28 81.0117 141.185 81.2 145.582 81.2C150.09 81.2 151.48 81.6004 151.48 82.8982C151.48 83.7305 152.435 84 155.382 84C158.587 84 159.524 84.3962 160.021 85.9621C160.301 86.8469 162.12 86.8616 162.12 85.9796C162.12 85.8473 162.485 85.3482 162.932 84.8694L163.745 84H168.074C173.391 84 173.88 84.2611 173.88 87.0982C173.88 89.4831 174.779 90.2566 175.931 88.8636C177.297 87.213 177.808 86.8 178.487 86.8C179.021 86.8 179.2 86.6544 179.2 86.2218C179.2 84.5271 180.583 83.6514 181.574 84.7196L182.261 85.4616L181.452 86.2708C181.007 86.716 180.382 87.08 180.062 87.08C179.208 87.08 179.15 96.775 179.999 97.5436C180.672 98.1519 181.284 97.8992 182.02 96.7085C183.68 94.0219 185.08 95.2812 185.08 99.4623C185.08 102.398 184.647 103.354 183.044 103.96C182.771 104.063 182.463 104.371 182.36 104.644C182.144 105.216 180.971 106.397 180.17 106.85C178.639 107.714 179.722 109.2 181.88 109.2C183.787 109.2 184.108 109.059 184.82 107.909C186.48 105.222 187.88 106.481 187.88 110.662C187.88 114.269 187.33 115.001 184.515 115.136C183.116 115.203 182.695 115.332 182.449 115.77C182.052 116.475 180.874 117.653 180.17 118.049C179.239 118.571 179.244 120.4 180.176 120.4C180.603 120.4 181.187 120.702 181.582 121.129L182.258 121.858L181.499 122.641L180.74 123.425L179.97 122.7C179.547 122.301 179.2 121.684 179.2 121.328C179.2 120.747 179.07 120.68 177.94 120.68C176.851 120.68 176.68 120.759 176.68 121.262C176.68 122.014 175.214 123.48 174.462 123.48C173.928 123.48 173.88 123.642 173.88 125.462C173.88 127.274 173.811 127.512 173.07 128.253L172.26 129.063L171.53 128.334C169.949 126.753 170.888 123.2 172.887 123.2C173.464 123.2 173.6 123.064 173.6 122.487C173.6 121.57 174.77 120.4 175.687 120.4C176.544 120.4 176.71 119.07 175.948 118.308C175.254 117.614 171.676 117.813 171.249 118.57C171.079 118.871 170.607 119.466 170.2 119.891L169.46 120.663L168.73 119.934C168.328 119.532 168 119.104 168 118.982C168 117.914 163.759 117.337 162.963 118.297C162.503 118.851 162.825 120.04 163.493 120.251C163.785 120.344 164.347 120.744 164.744 121.14L165.463 121.86L164.702 122.616C164.283 123.032 163.717 123.457 163.444 123.56C163.171 123.663 162.863 123.971 162.76 124.244C161.473 127.651 156.8 126.818 156.8 123.182C156.8 121.477 156.366 120.68 155.436 120.68C154.463 120.68 154.28 121.271 154.28 124.398C154.28 128.301 153.785 128.998 150.915 129.136C149.516 129.203 149.095 129.332 148.849 129.77C148.679 130.071 148.203 130.67 147.792 131.1L147.043 131.88H142.598C138.022 131.88 137.48 132.003 137.48 133.036C137.48 133.966 138.277 134.4 139.982 134.4C141.356 134.4 141.715 134.511 142.334 135.13L143.063 135.86L142.253 136.67L141.443 137.48H137.26C131.676 137.48 130.07 136.297 133.108 134.42C134.147 133.778 134.473 133.237 134.22 132.578C133.857 131.633 129.78 131.626 129.249 132.57C128.37 134.132 127.526 134.649 125.715 134.736C124.316 134.803 123.895 134.932 123.649 135.37C123.479 135.671 123.007 136.266 122.6 136.691L121.86 137.463L121.13 136.734C120.728 136.332 120.4 135.904 120.4 135.782C120.4 134.819 119.559 134.68 113.698 134.68H107.876L107.145 133.949C106.272 133.076 106.454 132.518 107.909 131.62C109.494 130.64 109.521 129.811 107.993 128.988C106.043 127.938 106.105 127.482 108.464 125.531C109.691 124.516 109.402 120.68 108.098 120.68C107.976 120.68 107.544 120.348 107.138 119.942L106.4 119.204V113.474V107.745L107.269 106.932C107.748 106.485 108.247 106.12 108.38 106.12C109.262 106.12 109.247 104.301 108.362 104.021C106.394 103.396 106.18 101.888 107.909 100.82C109.316 99.9495 109.535 98.7931 108.362 98.4207C107.11 98.0231 106.4 96.8716 106.396 95.2315C106.391 93.4346 106.299 93.2435 105.117 92.5561C102.878 91.2555 103.68 89.6 106.548 89.6C107.907 89.6 108.206 89.4992 108.731 88.8636C110.682 86.5046 111.138 86.443 112.188 88.3932C112.843 89.6084 114.52 89.887 114.52 88.7796C114.52 86.2267 120.011 86.2113 120.821 88.7621C121.101 89.6469 122.92 89.6616 122.92 88.7796C122.92 87.8381 124.594 86.8 126.112 86.8C128.24 86.8 128.8 86.2428 128.8 84.1274C128.8 82.5055 128.763 82.5692 130.794 80.7401C131.16 80.4104 131.792 79.7489 132.198 79.2701C132.676 78.7066 133.193 78.4 133.668 78.4C134.266 78.4 134.4 78.2691 134.4 77.6874C134.4 75.8996 135.995 75.3326 137.121 76.72ZM159.517 79.492C159.732 79.8357 159.617 80.1185 159.027 80.7002L158.256 81.4597L157.535 80.7387C156.969 80.1731 156.873 79.9057 157.09 79.5004C157.707 78.3482 158.801 78.344 159.517 79.492ZM193.003 79.3338C193.364 79.8854 193.332 80.0072 192.636 80.6925L191.871 81.445L191.103 80.6428L190.334 79.8406L191.052 79.1231C191.841 78.3342 192.388 78.393 193.003 79.3338ZM134.68 79.4997C134.68 80.9851 135.701 81.5787 136.64 80.64C137.711 79.569 137.393 78.68 135.94 78.68C134.733 78.68 134.68 78.715 134.68 79.4997ZM125.917 82.292C126.132 82.6357 126.018 82.9185 125.427 83.5002L124.656 84.2597L123.935 83.5387C123.369 82.9731 123.273 82.7057 123.49 82.3004C124.107 81.1482 125.201 81.144 125.917 82.292ZM207.48 85.54V89.6H209.593C211.926 89.6 213.08 90.3084 213.08 91.7406C213.08 92.6723 216.928 92.7521 217.84 91.84C218.581 91.0987 218.245 89.88 217.298 89.88C216.444 89.88 215.6 88.34 215.6 86.7818C215.6 84.6615 215.221 84.28 213.112 84.28C211.421 84.28 210.583 83.7403 209.745 82.11C209.503 81.6403 209.173 81.48 208.45 81.48H207.48V85.54ZM190.662 94.01C191.654 95.3806 193.2 95.753 193.2 94.6218C193.2 92.9271 194.583 92.0514 195.574 93.1196L196.261 93.8616L195.452 94.6708C195.007 95.116 194.382 95.48 194.062 95.48C193.659 95.48 193.48 95.6592 193.48 96.0617C193.48 98.0742 189.874 99.0822 188.353 97.4946C187.294 96.39 187.267 94.1073 188.301 93.0741C189.139 92.2355 189.472 92.3671 190.662 94.01ZM215.517 107.492C215.732 107.836 215.617 108.119 215.027 108.7L214.256 109.46L213.535 108.739C212.969 108.173 212.874 107.906 213.091 107.5C213.707 106.348 214.801 106.344 215.517 107.492ZM89.5174 113.092C89.7323 113.436 89.6175 113.719 89.0267 114.3L88.256 115.06L87.535 114.339C86.9694 113.773 86.8735 113.506 87.0905 113.1C87.7072 111.948 88.8006 111.944 89.5174 113.092ZM81.1174 124.292C81.3323 124.636 81.2175 124.919 80.6267 125.5L79.856 126.26L79.135 125.539C78.5694 124.973 78.4735 124.706 78.6905 124.3C79.3072 123.148 80.4006 123.144 81.1174 124.292ZM203.993 129.541C205.109 130.745 205.031 135.492 203.877 136.646L203.075 137.449L202.371 136.694C201.985 136.28 201.522 135.657 201.345 135.31C201.166 134.964 200.859 134.68 200.663 134.68C198.975 134.68 198.111 130.864 199.487 129.487C200.514 128.461 203.02 128.49 203.993 129.541ZM89.5174 132.692C89.7323 133.036 89.6175 133.319 89.0267 133.9L88.256 134.66L87.535 133.939C86.9694 133.373 86.8735 133.106 87.0905 132.7C87.7072 131.548 88.8006 131.544 89.5174 132.692ZM184.384 132.331L185.061 133.062L184.252 133.871C182.434 135.689 175.652 134.639 176.69 132.7C177.437 131.305 183.178 131.03 184.384 132.331ZM128.717 138.292C128.932 138.636 128.818 138.919 128.227 139.5L127.456 140.26L126.735 139.539C126.169 138.973 126.073 138.706 126.29 138.3C126.907 137.148 128.001 137.144 128.717 138.292ZM159.496 138.305C159.898 138.819 158.541 140.28 157.662 140.28C157.259 140.28 157.08 140.459 157.08 140.862C157.08 141.182 156.715 141.807 156.27 142.253L155.46 143.063L154.737 142.34C153.708 141.312 154.54 140 156.222 140C156.654 140 156.8 139.821 156.8 139.287C156.8 137.514 158.418 136.925 159.496 138.305ZM198.603 138.134C198.964 138.685 198.932 138.807 198.236 139.493L197.471 140.245L196.703 139.443L195.934 138.641L196.652 137.923C197.441 137.134 197.988 137.193 198.603 138.134ZM83.9174 141.092C84.1323 141.436 84.0175 141.719 83.4267 142.3L82.656 143.06L81.935 142.339C81.3694 141.773 81.2735 141.506 81.4905 141.1C82.1072 139.948 83.2006 139.944 83.9174 141.092ZM117.517 141.092C117.732 141.436 117.618 141.719 117.027 142.3L116.256 143.06L115.535 142.339C114.969 141.773 114.873 141.506 115.09 141.1C115.707 139.948 116.801 139.944 117.517 141.092ZM139.917 143.892C140.132 144.236 140.018 144.519 139.427 145.1L138.656 145.86L137.935 145.139C137.369 144.573 137.273 144.306 137.49 143.9C138.107 142.748 139.201 142.744 139.917 143.892ZM151.117 143.892C151.332 144.236 151.217 144.519 150.627 145.1L149.856 145.86L149.135 145.139C148.569 144.573 148.473 144.306 148.69 143.9C149.307 142.748 150.401 142.744 151.117 143.892ZM170.717 143.892C170.932 144.236 170.817 144.519 170.227 145.1L169.456 145.86L168.735 145.139C168.169 144.573 168.073 144.306 168.29 143.9C168.907 142.748 170.001 142.744 170.717 143.892ZM120.317 146.692C120.532 147.036 120.418 147.319 119.827 147.9L119.056 148.66L118.335 147.939C117.769 147.373 117.673 147.106 117.89 146.7C118.507 145.548 119.601 145.544 120.317 146.692ZM187.88 149.477C187.88 151.076 189.679 151.634 190.227 150.205C190.686 149.01 190.45 148.68 189.14 148.68C187.942 148.68 187.88 148.719 187.88 149.477ZM137.121 160.72C137.308 160.951 137.466 161.424 137.471 161.77C137.478 162.243 137.645 162.4 138.142 162.4C139.147 162.4 140.383 163.737 139.861 164.259C139.64 164.48 139.28 164.84 139.059 165.061C138.537 165.583 137.2 164.347 137.2 163.342C137.2 162.833 137.047 162.68 136.538 162.68C135.563 162.68 134.335 161.364 134.69 160.7C135.32 159.522 136.154 159.529 137.121 160.72ZM179.48 163.94C179.48 165.286 179.952 165.566 181.145 164.928C182.456 164.226 181.978 162.68 180.45 162.68C179.487 162.68 179.48 162.689 179.48 163.94ZM128.717 166.292C128.932 166.636 128.818 166.919 128.227 167.5L127.456 168.26L126.735 167.539C126.169 166.973 126.073 166.706 126.29 166.3C126.907 165.148 128.001 165.144 128.717 166.292ZM145.517 166.292C145.732 166.636 145.618 166.919 145.027 167.5L144.256 168.26L143.535 167.539C142.969 166.973 142.873 166.706 143.09 166.3C143.707 165.148 144.801 165.144 145.517 166.292ZM170.717 166.292C170.932 166.636 170.817 166.919 170.227 167.5L169.456 168.26L168.735 167.539C168.169 166.973 168.073 166.706 168.29 166.3C168.907 165.148 170.001 165.144 170.717 166.292ZM95.1174 171.892C95.3323 172.236 95.2175 172.519 94.6267 173.1L93.856 173.86L93.135 173.139C92.5694 172.573 92.4735 172.306 92.6905 171.9C93.3072 170.748 94.4006 170.744 95.1174 171.892ZM142.717 171.892C142.932 172.236 142.818 172.519 142.227 173.1L141.456 173.86L140.735 173.139C140.169 172.573 140.073 172.306 140.29 171.9C140.907 170.748 142.001 170.744 142.717 171.892ZM83.9174 174.692C84.1323 175.036 84.0175 175.319 83.4267 175.9L82.656 176.66L81.935 175.939C81.3694 175.373 81.2735 175.106 81.4905 174.7C82.1072 173.548 83.2006 173.544 83.9174 174.692ZM170.717 174.692C170.932 175.036 170.817 175.319 170.227 175.9L169.456 176.66L168.735 175.939C168.169 175.373 168.073 175.106 168.29 174.7C168.907 173.548 170.001 173.544 170.717 174.692ZM103.517 177.492C103.732 177.836 103.618 178.119 103.027 178.7L102.256 179.46L101.535 178.739C100.969 178.173 100.873 177.906 101.09 177.5C101.707 176.348 102.801 176.344 103.517 177.492ZM173.517 180.292C173.732 180.636 173.617 180.919 173.027 181.5L172.256 182.26L171.535 181.539C170.969 180.973 170.873 180.706 171.09 180.3C171.707 179.148 172.801 179.144 173.517 180.292ZM193.003 182.934C193.364 183.485 193.332 183.607 192.636 184.293L191.871 185.045L191.103 184.243L190.334 183.441L191.052 182.723C191.841 181.934 192.388 181.993 193.003 182.934ZM73.416 182.616C72.7762 183.256 73.3453 184.8 74.2203 184.8C74.7383 184.8 75.6 183.663 75.6 182.98C75.6 182.197 74.0873 181.945 73.416 182.616ZM106.317 188.692C106.532 189.036 106.418 189.319 105.827 189.9L105.056 190.66L104.335 189.939C103.769 189.373 103.673 189.106 103.89 188.7C104.507 187.548 105.601 187.544 106.317 188.692ZM167.917 188.692C168.132 189.036 168.017 189.319 167.427 189.9L166.656 190.66L165.935 189.939C165.369 189.373 165.273 189.106 165.49 188.7C166.107 187.548 167.201 187.544 167.917 188.692ZM190.203 188.534C190.564 189.085 190.532 189.207 189.836 189.893L189.071 190.645L188.303 189.843L187.534 189.041L188.252 188.323C189.041 187.534 189.588 187.593 190.203 188.534ZM195.803 188.534C196.164 189.085 196.132 189.207 195.436 189.893L194.671 190.645L193.903 189.843L193.134 189.041L193.852 188.323C194.641 187.534 195.188 187.593 195.803 188.534ZM81.1174 191.492C81.3323 191.836 81.2175 192.119 80.6267 192.7L79.856 193.46L79.135 192.739C78.5694 192.173 78.4735 191.906 78.6905 191.5C79.3072 190.348 80.4006 190.344 81.1174 191.492ZM100.721 191.52C101.412 192.37 101.16 194.563 100.27 195.453L99.4595 196.263L98.7301 195.534C97.6829 194.487 97.6731 192.102 98.7119 191.063C99.4602 190.315 99.806 190.393 100.721 191.52ZM176.317 191.492C176.532 191.836 176.417 192.119 175.827 192.7L175.056 193.46L174.335 192.739C173.769 192.173 173.673 191.906 173.89 191.5C174.507 190.348 175.601 190.344 176.317 191.492ZM184.603 191.334C184.964 191.885 184.932 192.007 184.236 192.693L183.471 193.445L182.703 192.643L181.934 191.841L182.652 191.123C183.441 190.334 183.988 190.393 184.603 191.334ZM204.203 191.334C204.564 191.885 204.532 192.007 203.836 192.693L203.071 193.445L202.303 192.643L201.534 191.841L202.252 191.123C203.041 190.334 203.588 190.393 204.203 191.334ZM86.7174 197.092C86.9323 197.436 86.8175 197.719 86.2267 198.3L85.456 199.06L84.735 198.339C84.1694 197.773 84.0735 197.506 84.2905 197.1C84.9072 195.948 86.0006 195.944 86.7174 197.092ZM198.603 196.934C198.964 197.485 198.932 197.607 198.236 198.293L197.471 199.045L196.703 198.243L195.934 197.441L196.652 196.723C197.441 195.934 197.988 195.993 198.603 196.934ZM73.416 205.016C72.5732 205.859 73.4111 207.2 74.7803 207.2C75.4999 207.2 75.6 207.1 75.6 206.38C75.6 205.011 74.2588 204.173 73.416 205.016ZM103.517 211.092C103.732 211.436 103.618 211.719 103.027 212.3L102.256 213.06L101.535 212.339C100.969 211.773 100.873 211.506 101.09 211.1C101.707 209.948 102.801 209.944 103.517 211.092ZM100.717 219.492C100.932 219.836 100.818 220.119 100.227 220.7L99.456 221.46L98.735 220.739C98.1694 220.173 98.0735 219.906 98.2905 219.5C98.9072 218.348 100.001 218.344 100.717 219.492ZM185.416 227.416C184.925 227.907 185.005 228.605 185.617 229.159C186.494 229.953 187.6 229.093 187.6 227.617C187.6 226.988 185.991 226.841 185.416 227.416ZM207.003 230.534C207.364 231.085 207.332 231.207 206.636 231.893L205.871 232.645L205.103 231.843L204.334 231.041L205.052 230.323C205.841 229.534 206.388 229.593 207.003 230.534Z" fill="#FCFCFC"/>
<path fill-rule="evenodd" clip-rule="evenodd" d="M0 140V280H140H280V140V0H140H0V140ZM136.76 48.3203C137.002 48.5618 137.2 48.86 137.2 48.9818C137.2 49.1036 137.528 49.532 137.93 49.9338L138.66 50.6632L139.4 49.8911C139.807 49.4662 140.279 48.8712 140.449 48.5695C141.35 46.9644 142.8 48.0816 142.8 50.3818C142.8 51.7559 142.911 52.115 143.53 52.7338L144.26 53.4632L145.07 52.6533C145.782 51.9414 145.88 51.6411 145.88 50.176C145.88 47.6273 147.375 47.0127 148.499 49.0994C148.784 49.6293 149.446 50.2936 149.97 50.5757C150.494 50.8578 150.99 51.2995 151.071 51.5564C151.997 54.4726 159.88 54.2087 159.88 51.2617C159.88 50.6947 160.005 50.68 164.9 50.68C169.921 50.68 170.8 50.8445 170.8 51.7818C170.8 51.9036 171.128 52.332 171.53 52.7338L172.26 53.4632L173.07 52.6533C173.515 52.2074 173.88 51.723 173.88 51.576C173.88 50.3181 175.778 50.5617 176.506 51.9134C176.795 52.451 177.457 53.0922 177.976 53.3386C178.495 53.585 178.92 53.9021 178.92 54.0435C178.92 54.1849 179.311 54.7456 179.789 55.2902L180.658 56.28H183.839C187.515 56.28 187.6 56.3381 187.6 58.8364C187.6 60.046 187.732 60.4471 188.337 61.0792L189.075 61.8485L189.807 61.0834C190.21 60.6627 190.679 60.0712 190.848 59.7695C191.311 58.9435 192.527 58.8994 192.935 59.6932C193.808 61.3879 194.602 61.88 196.463 61.88C198.542 61.88 198.8 62.1621 198.8 64.4364C198.8 66.6512 199.688 67.48 202.063 67.48C204.226 67.48 204.4 67.7187 204.4 70.6818C204.4 72.7643 204.388 72.8 203.687 72.8C203.295 72.8 202.651 73.1241 202.254 73.5203L201.534 74.2406L202.304 75.0442L203.075 75.8485L203.877 75.0456C204.319 74.6046 204.68 73.9816 204.68 73.6617C204.68 73.185 204.855 73.08 205.65 73.08C207.022 73.08 207.2 73.6071 207.2 77.6818V81.2H206.487C204.922 81.2 204.4 82.2612 204.4 85.442C204.4 88.5913 205.025 89.88 206.553 89.88C207.043 89.88 207.2 90.0375 207.2 90.5275C207.2 91.8729 208.545 92.68 210.785 92.68H212.8V93.94C212.8 95.1034 212.745 95.2 212.087 95.2C210.086 95.2 209.171 98.644 210.737 100.279L211.475 101.048L212.277 100.246C213.01 99.5134 213.08 99.2698 213.08 97.4617V95.48H215.3C218.296 95.48 219.198 96.2626 217.664 97.531C215.318 99.4714 215.253 99.8732 217.117 100.956C218.391 101.697 218.391 101.697 218.396 106.431C218.4 110.886 218.806 112.28 220.098 112.28C221.268 112.28 221.691 115.989 220.64 117.04C220.154 117.526 219.707 117.6 217.262 117.6C215.711 117.6 214.202 117.729 213.908 117.886C212.003 118.906 213.267 120.68 215.898 120.68C218.037 120.68 218.4 121.052 218.4 123.241C218.4 124.716 218.31 124.998 217.664 125.531C216.729 126.304 215.904 127.129 215.131 128.064C214.572 128.74 214.35 128.8 212.401 128.8H210.28V126.741C210.28 123.957 209.652 123.2 207.341 123.2C206.032 123.2 205.656 123.318 205.054 123.92L204.334 124.641L205.12 125.46C205.552 125.911 206.066 126.28 206.263 126.28C206.459 126.28 206.766 126.563 206.945 126.91C207.519 128.027 208.688 129.08 209.353 129.08C209.833 129.08 210 129.239 210 129.695C210 130.367 211.29 131.88 211.863 131.88C213.093 131.88 212.866 133.58 211.526 134.408C211.01 134.728 210.32 135.423 209.992 135.954C209.663 136.485 209.292 136.92 209.167 136.92C208.237 136.92 207.2 138.604 207.2 140.112C207.2 141.307 207.066 141.814 206.64 142.24C205.854 143.026 205.638 142.957 204.662 141.61C203.418 139.893 203.111 139.798 202.217 140.849C201.801 141.339 201.16 142.01 200.794 142.34C199.791 143.243 199.008 144.046 198.331 144.864C197.525 145.839 196.28 145.886 196.28 144.941C196.28 143.184 194.28 142.425 193.498 143.886C193.157 144.525 194.438 145.88 195.385 145.88C196.193 145.88 196.225 147.055 195.44 147.84C194.528 148.752 190.68 148.672 190.68 147.741C190.68 146.707 189.423 145.504 188.729 145.875C188.063 146.232 187.6 147.029 187.6 147.822C187.6 148.254 187.421 148.4 186.887 148.4C186.208 148.4 185.697 148.813 184.331 150.464C183.525 151.439 182.28 151.486 182.28 150.541C182.28 148.784 180.28 148.025 179.498 149.486C179.157 150.125 180.438 151.48 181.385 151.48C182.193 151.48 182.225 152.655 181.44 153.44C180.951 153.929 180.507 154 177.912 154C174.95 154 173.32 154.698 173.32 155.967C173.32 156.092 172.878 156.468 172.337 156.802C169.537 158.533 170.899 159.88 175.448 159.88C178.298 159.88 178.65 159.935 178.91 160.422C179.422 161.378 179.273 162.4 178.622 162.4C177.843 162.4 177.034 162.86 176.693 163.495C176.335 164.164 177.558 165.48 178.538 165.48C179.173 165.48 179.2 165.562 179.2 167.527C179.2 170.313 179.911 171.08 182.496 171.08C184.538 171.08 184.8 171.37 184.8 173.636C184.8 174.846 184.932 175.247 185.537 175.879L186.275 176.648L187.007 175.883C187.41 175.463 187.879 174.871 188.048 174.569C188.511 173.743 189.727 173.699 190.135 174.493C190.61 175.414 191.841 176.68 192.263 176.68C192.459 176.68 192.766 176.963 192.945 177.31C193.411 178.216 194.644 179.48 195.063 179.48C195.259 179.48 195.566 179.763 195.745 180.11C196.211 181.016 197.444 182.28 197.863 182.28C198.059 182.28 198.366 182.563 198.545 182.91C199.407 184.586 200.206 185.08 202.063 185.08C203.603 185.08 203.86 185.158 204.145 185.71C204.611 186.616 205.844 187.88 206.263 187.88C206.941 187.88 207.2 188.972 207.2 191.836C207.2 194.795 207.822 196.28 209.063 196.28C209.641 196.28 210 197.259 210 198.836C210 200.343 210.942 201.88 211.866 201.88C212.064 201.88 212.419 202.255 212.656 202.712C213.456 204.259 214.153 204.68 215.913 204.68C217.423 204.68 218.4 205.113 218.4 205.782C218.4 206.636 219.94 207.48 221.498 207.48C224.04 207.48 224 207.374 224 214.182V220.004L224.728 220.732C225.129 221.133 225.684 221.533 225.962 221.621C227.135 221.993 226.916 223.15 225.508 224.02C223.944 224.986 224.073 227.08 225.698 227.08C226.005 227.08 226.8 227.902 226.8 228.22C226.8 229.003 225.634 229.6 224.108 229.6C222.694 229.6 222.461 229.688 221.798 230.47C221.392 230.949 220.76 231.61 220.394 231.94C218.363 233.769 218.4 233.706 218.4 235.327C218.4 237.882 218.16 238 212.927 238C208.119 238 208.559 237.854 206.731 240.064C205.928 241.034 205.692 240.997 204.78 239.75C203.301 237.728 202.746 237.686 201.62 239.508C200.377 241.519 199.08 240.89 199.08 238.277C199.08 235.957 198.327 235.2 196.015 235.2C194.36 235.2 194.306 235.175 193.502 234.065C193.049 233.442 192.261 232.65 191.75 232.305C190.887 231.726 190.814 231.556 190.737 229.967C190.642 228 189.83 226.8 188.593 226.8C188.031 226.8 187.88 226.661 187.88 226.141C187.88 225.463 187.103 224.521 185.814 223.637C185.164 223.191 185.08 222.947 185.08 221.508C185.08 219.787 184.745 219.225 183.014 218.037C182.364 217.591 182.28 217.347 182.28 215.908C182.28 214.187 181.945 213.625 180.214 212.437C179.192 211.737 179.062 207.48 180.062 207.48C180.382 207.48 181.007 207.116 181.452 206.671L182.261 205.862L181.574 205.12C180.583 204.051 179.2 204.927 179.2 206.622C179.2 207.075 179.022 207.2 178.38 207.2C177.612 207.2 176.68 206.597 176.68 206.098C176.68 205.244 175.14 204.4 173.582 204.4C171.335 204.4 171.08 204.084 171.08 201.3C171.08 199.24 171.122 199.08 171.662 199.08C171.982 199.08 172.607 198.715 173.053 198.27L173.863 197.459L173.14 196.737C172.112 195.708 170.8 196.54 170.8 198.222C170.8 198.757 170.638 198.8 168.63 198.796C166.204 198.791 166.065 198.736 165.351 197.508C165.072 197.028 164.452 196.408 163.972 196.129C162.779 195.436 162.689 195.248 162.684 193.449C162.68 191.804 161.969 190.656 160.706 190.256C160.422 190.166 160.114 189.858 160.024 189.574C159.617 188.292 158.48 187.6 156.782 187.6C155.256 187.6 154.28 187.17 154.28 186.498C154.28 185.661 152.739 184.8 151.231 184.796C149.428 184.791 149.245 184.702 148.539 183.487C148.253 182.996 147.596 182.366 147.078 182.087C145.756 181.376 145.537 179.48 146.776 179.48C146.923 179.48 147.407 179.115 147.853 178.67L148.663 177.86L147.934 177.13C147.327 176.523 146.947 176.4 145.689 176.4C144.105 176.4 143.968 176.484 142.331 178.464C141.182 179.854 138.288 179.519 137.339 177.887C137.053 177.396 136.4 176.768 135.888 176.492C135.376 176.217 134.89 175.78 134.809 175.524C134.324 173.998 133.367 173.6 130.182 173.6C127.235 173.6 126.28 173.33 126.28 172.498C126.28 171.206 124.886 170.8 120.431 170.796C115.697 170.791 115.697 170.791 114.956 169.517C113.873 167.654 113.471 167.718 111.531 170.064C110.947 170.771 110.808 170.8 108.083 170.8C106.521 170.8 105.002 170.929 104.708 171.086C102.803 172.106 104.067 173.88 106.698 173.88C108.837 173.88 109.2 174.252 109.2 176.441C109.2 177.916 109.11 178.198 108.464 178.731C106.484 180.368 106.4 180.506 106.4 182.089C106.4 183.539 107.275 185.08 108.098 185.08C109.476 185.08 109.79 191.635 108.464 192.731C106.105 194.682 106.043 195.138 107.993 196.188C109.208 196.843 109.487 198.52 108.38 198.52C107.431 198.52 106.4 200.194 106.4 201.734C106.4 203.108 106.301 203.405 105.664 203.931C103.318 205.871 103.254 206.273 105.117 207.356C106.299 208.043 106.391 208.235 106.396 210.032C106.4 211.539 107.261 213.08 108.098 213.08C109.096 213.08 109.2 213.846 109.2 221.241V228.523L108.464 229.131C106.476 230.775 106.4 230.901 106.4 232.527C106.4 234.639 105.839 235.2 103.727 235.2C101.554 235.2 100.8 235.954 100.8 238.127C100.8 240.889 101.123 240.801 91.07 240.796C81.8524 240.791 82.1177 240.827 81.3386 239.487C81.053 238.996 80.4195 238.379 79.9309 238.116C79.4423 237.852 78.8221 237.228 78.5526 236.727C78.2831 236.227 77.6293 235.584 77.0994 235.299C75.7596 234.578 75.5251 232.68 76.776 232.68C77.2765 232.68 78.68 231.045 78.68 230.462C78.68 230.059 78.8592 229.88 79.2617 229.88C79.5816 229.88 80.2074 229.515 80.6533 229.07L81.4632 228.259L80.7401 227.537C79.7118 226.508 78.4 227.34 78.4 229.022C78.4 229.795 74.2651 229.905 73.5119 229.151C72.7853 228.425 73.0037 222.082 73.7695 221.65C74.0712 221.479 74.6662 221.007 75.0911 220.6L75.8632 219.859L75.1436 219.14C74.7474 218.744 74.1846 218.344 73.8927 218.251C72.8504 217.92 72.7496 213.823 73.7695 213.249C75.4537 212.301 75.88 211.536 75.88 209.462V207.48H77.8617C81.8223 207.48 83.1915 202.626 79.5564 201.471C79.2995 201.39 78.8578 200.894 78.5757 200.37C78.2936 199.846 77.6293 199.184 77.0994 198.899C75.8681 198.236 75.8443 198.114 75.9402 192.81C76.0137 188.728 76.0655 188.334 76.5695 188.05C79.4108 186.446 79.3905 182 76.5415 182C76.0326 182 75.88 181.847 75.88 181.338C75.88 180.622 74.7509 179.324 73.8927 179.051C72.8952 178.734 72.9673 176.68 73.976 176.68C74.123 176.68 74.6074 176.315 75.0533 175.87L75.8632 175.06L75.1436 174.34C74.7474 173.944 74.1846 173.544 73.8927 173.451C72.8504 173.12 72.7496 169.023 73.7695 168.449C74.0712 168.279 74.6662 167.807 75.0911 167.4L75.8632 166.66L75.1436 165.94C74.7474 165.544 74.1846 165.144 73.8927 165.051C72.8952 164.734 72.9673 162.68 73.976 162.68C76.7074 162.68 76.6325 154.721 73.8927 153.851C72.8504 153.52 72.7496 149.423 73.7695 148.849C74.0712 148.679 74.6662 148.206 75.0918 147.799L75.866 147.057L75.943 142.509C76.0137 138.326 76.0641 137.935 76.5695 137.65C76.8712 137.479 77.4662 137.007 77.8911 136.6L78.6632 135.86L77.9338 135.13C77.315 134.511 76.9559 134.4 75.5818 134.4C73.2816 134.4 72.1644 132.95 73.7695 132.049C76.7886 130.352 76.8754 123.998 73.8927 123.051C72.0433 122.464 73.1591 120.68 75.376 120.68C76.8411 120.68 77.1414 120.582 77.8533 119.87L78.6632 119.06L77.9338 118.33C77.532 117.928 77.1036 117.6 76.9818 117.6C76.3098 117.6 75.88 116.623 75.88 115.098C75.88 113.54 75.0358 112 74.1818 112C73.1794 112 72.5473 107.885 73.416 107.016C74.0663 106.366 75.6 106.595 75.6 107.341C75.6 108.347 76.937 109.583 77.4592 109.061C77.6797 108.84 78.0402 108.48 78.2607 108.259C78.7829 107.737 77.5467 106.4 76.5415 106.4C76.0326 106.4 75.88 106.247 75.88 105.738C75.88 105.022 74.7509 103.724 73.8927 103.451C72.8504 103.121 72.7496 99.0227 73.7695 98.4487C74.0712 98.2793 74.6662 97.8068 75.0911 97.4001L75.8632 96.6595L75.1436 95.9399C74.7474 95.5437 74.2133 95.1531 73.9564 95.0712C73.6995 94.99 73.2578 94.4944 72.9757 93.9701C72.6936 93.4458 72.0293 92.7836 71.4994 92.4987C70.3808 91.8967 70.2177 91.4333 70.3346 89.1975C70.4011 87.9165 70.5397 87.4902 70.9695 87.2487C71.2712 87.0793 71.8662 86.6068 72.2911 86.2001L73.0632 85.4595L72.3436 84.7399C71.9474 84.3437 71.3846 83.944 71.0927 83.8509C70.0952 83.5345 70.1673 81.48 71.176 81.48C72.4031 81.48 73.0604 79.8847 73.1402 76.7109C73.2109 73.9193 73.283 73.5245 73.7695 73.2501C74.5703 72.7979 75.7435 71.6163 75.9598 71.0437C76.0627 70.7707 76.3707 70.4627 76.6437 70.3598C77.2835 70.1183 78.5183 68.8835 78.7598 68.2437C78.8627 67.9707 79.1707 67.6627 79.4437 67.5598C80.7835 67.0537 81.48 65.9036 81.48 64.1977C81.48 62.1453 81.7453 61.88 83.7977 61.88C85.5036 61.88 86.6537 61.1835 87.1598 59.8437C87.2627 59.5707 87.5707 59.2627 87.8437 59.1598C88.417 58.9435 89.5993 57.7689 90.0487 56.9695C90.4491 56.2569 91.3689 56.1288 91.945 56.7049C92.7045 57.4644 92.6002 61.6 91.8218 61.6C90.1404 61.6 89.3081 62.9118 90.3371 63.9401L91.0595 64.6632L91.8701 63.8533C92.3153 63.4074 92.68 62.7816 92.68 62.4617C92.68 62.0592 92.8592 61.88 93.2617 61.88C94.486 61.88 95.48 60.41 95.48 58.5977C95.48 56.9044 95.7915 56.28 96.6357 56.28C97.566 56.28 98 57.0766 98 58.7818C98 60.1559 98.1113 60.515 98.7301 61.1338L99.4595 61.8632L100.27 61.0533C100.98 60.3435 101.08 60.039 101.08 58.5977C101.08 56.3584 101.206 56.28 104.798 56.28C108.024 56.28 108.939 55.8887 109.56 54.2437C109.663 53.9707 109.971 53.6627 110.244 53.5598C110.855 53.3288 112.28 51.9407 112.28 51.576C112.28 50.5673 114.334 50.4952 114.651 51.4927C114.924 52.3509 116.222 53.48 116.938 53.48C117.447 53.48 117.6 53.6326 117.6 54.1415C117.6 55.0606 118.937 56.3829 119.399 55.9209C119.587 55.7333 119.947 55.3728 120.201 55.1194C120.783 54.537 119.626 53.2 118.541 53.2C117.98 53.2 117.88 53.0607 117.88 52.276C117.88 50.9418 118.299 50.68 120.436 50.68C122.849 50.68 123.2 50.9985 123.2 53.1818C123.2 54.5559 123.311 54.915 123.93 55.5338L124.66 56.2632L125.47 55.4533C126.182 54.7414 126.28 54.4411 126.28 52.976C126.28 50.7591 128.064 49.6433 128.651 51.4927C128.744 51.7846 129.144 52.3474 129.54 52.7436L130.26 53.4632L131.016 52.7016C131.432 52.283 131.857 51.7167 131.96 51.4437C132.063 51.1707 132.371 50.8627 132.644 50.7598C133.237 50.5358 134.68 49.1449 134.68 48.7977C134.68 47.9304 136.055 47.6147 136.76 48.3203ZM159.16 48.3203C159.402 48.5618 159.6 49.1288 159.6 49.5803V50.4H157.38C154.64 50.4 153.407 49.4249 154.616 48.216C155.133 47.6987 158.619 47.7785 159.16 48.3203ZM135.454 56.3003C133.734 57.302 134.889 59.08 137.26 59.08C138.412 59.08 138.778 58.9449 139.453 58.2701L140.263 57.4595L139.534 56.7301C138.746 55.9426 136.478 55.7039 135.454 56.3003ZM143.835 56.322C142.867 56.8638 142.763 57.5659 143.535 58.3387L144.256 59.0597L145.027 58.3002C146.057 57.2852 145.063 55.6346 143.835 56.322ZM160.635 56.322C159.667 56.8638 159.563 57.5659 160.335 58.3387L161.056 59.0597L161.827 58.3002C162.857 57.2852 161.863 55.6346 160.635 56.322ZM174.635 56.322C173.667 56.8638 173.563 57.5659 174.335 58.3387L175.056 59.0597L175.827 58.3002C176.857 57.2852 175.863 55.6346 174.635 56.322ZM127.035 59.122C126.067 59.6638 125.963 60.3659 126.735 61.1387L127.456 61.8597L128.227 61.1002C129.257 60.0852 128.263 58.4346 127.035 59.122ZM169.035 59.122C168.067 59.6638 167.963 60.3659 168.735 61.1387L169.456 61.8597L170.227 61.1002C171.257 60.0852 170.263 58.4346 169.035 59.122ZM182.652 59.5231L181.934 60.2406L182.703 61.0428L183.471 61.845L184.236 61.0925C184.932 60.4072 184.964 60.2854 184.603 59.7338C183.988 58.793 183.441 58.7342 182.652 59.5231ZM157.835 61.922C156.867 62.4638 156.763 63.1659 157.535 63.9387L158.256 64.6597L159.027 63.9002C160.057 62.8852 159.063 61.2346 157.835 61.922ZM177.437 61.9213C176.074 62.6836 176.872 64.68 178.538 64.68C179.043 64.68 179.2 64.8333 179.2 65.3275C179.2 65.6838 179.547 66.3012 179.97 66.7002L180.74 67.4254L181.499 66.6414L182.258 65.8581L181.582 65.1287C181.195 64.7115 180.602 64.4 180.193 64.4C179.663 64.4 179.48 64.2544 179.48 63.8302C179.48 62.5653 178.283 61.4474 177.437 61.9213ZM171.835 67.522C170.867 68.0638 170.763 68.7659 171.535 69.5387L172.256 70.2597L173.027 69.5002C174.057 68.4852 173.063 66.8346 171.835 67.522ZM188.285 67.8902C187.209 68.9654 187.246 73.9396 188.337 75.0792L189.075 75.8485L189.877 75.0456C190.65 74.2735 190.68 74.1412 190.68 71.5519C190.68 67.858 189.745 66.4293 188.285 67.8902ZM132.312 70.6629C131.921 71.0542 131.6 71.6954 131.6 72.0874C131.6 72.6208 131.454 72.8 131.022 72.8C129.34 72.8 128.508 74.1118 129.537 75.1401L130.26 75.8632L131.07 75.0533C131.515 74.6074 131.88 73.9816 131.88 73.6617C131.88 73.2592 132.059 73.08 132.462 73.08C133.341 73.08 134.698 71.6191 134.296 71.1053C133.434 70.0007 133.057 69.9174 132.312 70.6629ZM193.852 70.7231L193.134 71.4406L193.903 72.2428L194.671 73.045L195.436 72.2925C196.132 71.6072 196.164 71.4854 195.803 70.9338C195.188 69.993 194.641 69.9342 193.852 70.7231ZM146.312 73.4629C145.921 73.8542 145.6 74.4954 145.6 74.8874C145.6 75.4208 145.454 75.6 145.022 75.6C143.34 75.6 142.508 76.9118 143.537 77.9401L144.26 78.6632L145.07 77.8533C145.515 77.4074 145.88 76.7816 145.88 76.4617C145.88 76.0592 146.059 75.88 146.462 75.88C147.341 75.88 148.698 74.4191 148.296 73.9053C147.434 72.8007 147.057 72.7174 146.312 73.4629ZM177.437 73.1213C176.467 73.6638 176.362 74.3659 177.135 75.1387L177.856 75.8597L178.628 75.1002C179.707 74.0383 178.721 72.4024 177.437 73.1213ZM115.835 75.922C114.867 76.4638 114.763 77.1659 115.535 77.9387L116.256 78.6597L117.027 77.9002C118.057 76.8852 117.063 75.2346 115.835 75.922ZM135.112 76.2629C134.721 76.6542 134.4 77.2954 134.4 77.6874C134.4 78.2691 134.266 78.4 133.668 78.4C133.193 78.4 132.676 78.7066 132.198 79.2701C131.792 79.7489 131.16 80.4104 130.794 80.7401C128.763 82.5692 128.8 82.5055 128.8 84.1274C128.8 86.2428 128.24 86.8 126.112 86.8C124.594 86.8 122.92 87.8381 122.92 88.7796C122.92 89.6616 121.101 89.6469 120.821 88.7621C120.011 86.2113 114.52 86.2267 114.52 88.7796C114.52 89.887 112.843 89.6084 112.188 88.3932C111.138 86.443 110.682 86.5046 108.731 88.8636C108.206 89.4992 107.907 89.6 106.548 89.6C103.68 89.6 102.878 91.2555 105.117 92.5561C106.299 93.2435 106.391 93.4346 106.396 95.2315C106.4 96.8716 107.11 98.0231 108.362 98.4207C109.535 98.7931 109.316 99.9495 107.908 100.82C106.18 101.888 106.394 103.396 108.362 104.021C109.247 104.301 109.262 106.12 108.38 106.12C108.247 106.12 107.748 106.485 107.269 106.932L106.4 107.745V113.474V119.204L107.138 119.941C107.544 120.347 107.976 120.68 108.098 120.68C109.402 120.68 109.691 124.516 108.464 125.531C106.105 127.482 106.043 127.938 107.993 128.988C109.521 129.811 109.494 130.64 107.908 131.62C106.454 132.518 106.272 133.076 107.145 133.948L107.876 134.68H113.698C119.559 134.68 120.4 134.819 120.4 135.782C120.4 135.904 120.728 136.332 121.13 136.734L121.86 137.463L122.6 136.691C123.007 136.266 123.479 135.671 123.649 135.369C123.895 134.932 124.316 134.803 125.715 134.736C127.526 134.648 128.37 134.132 129.249 132.569C129.78 131.626 133.857 131.633 134.22 132.578C134.473 133.237 134.147 133.778 133.108 134.42C130.07 136.297 131.676 137.48 137.26 137.48H141.443L142.253 136.67L143.063 135.86L142.334 135.13C141.715 134.511 141.356 134.4 139.982 134.4C138.277 134.4 137.48 133.966 137.48 133.036C137.48 132.002 138.022 131.88 142.598 131.88H147.043L147.792 131.1C148.203 130.67 148.679 130.071 148.849 129.769C149.095 129.332 149.516 129.203 150.915 129.136C153.785 128.998 154.28 128.301 154.28 124.398C154.28 121.271 154.463 120.68 155.436 120.68C156.366 120.68 156.8 121.477 156.8 123.182C156.8 126.818 161.473 127.651 162.76 124.244C162.863 123.971 163.171 123.663 163.444 123.56C163.717 123.457 164.283 123.032 164.702 122.616L165.463 121.86L164.744 121.14C164.347 120.744 163.785 120.344 163.493 120.251C162.825 120.039 162.503 118.851 162.963 118.296C163.759 117.337 168 117.914 168 118.982C168 119.104 168.328 119.532 168.73 119.934L169.46 120.663L170.2 119.891C170.607 119.466 171.079 118.871 171.249 118.569C171.676 117.813 175.254 117.614 175.948 118.308C176.71 119.07 176.544 120.4 175.687 120.4C174.77 120.4 173.6 121.57 173.6 122.487C173.6 123.064 173.464 123.2 172.887 123.2C170.888 123.2 169.949 126.752 171.53 128.334L172.26 129.063L173.07 128.253C173.811 127.512 173.88 127.274 173.88 125.462C173.88 123.642 173.928 123.48 174.462 123.48C175.213 123.48 176.68 122.013 176.68 121.262C176.68 120.759 176.851 120.68 177.94 120.68C179.07 120.68 179.2 120.746 179.2 121.327C179.2 121.684 179.547 122.301 179.97 122.7L180.74 123.425L181.499 122.641L182.258 121.858L181.582 121.129C181.187 120.702 180.603 120.4 180.176 120.4C179.244 120.4 179.239 118.571 180.17 118.049C180.874 117.653 182.052 116.475 182.449 115.769C182.695 115.332 183.116 115.203 184.515 115.136C187.33 115.001 187.88 114.269 187.88 110.662C187.88 106.481 186.48 105.222 184.82 107.908C184.108 109.059 183.787 109.2 181.88 109.2C179.722 109.2 178.639 107.714 180.17 106.85C180.971 106.397 182.144 105.216 182.36 104.644C182.463 104.371 182.771 104.063 183.044 103.96C184.647 103.354 185.08 102.398 185.08 99.4623C185.08 95.2812 183.68 94.0219 182.02 96.7085C181.284 97.8992 180.672 98.1519 179.999 97.5436C179.15 96.775 179.208 87.08 180.062 87.08C180.382 87.08 181.007 86.716 181.452 86.2708L182.261 85.4616L181.574 84.7196C180.583 83.6514 179.2 84.5271 179.2 86.2218C179.2 86.6544 179.021 86.8 178.487 86.8C177.808 86.8 177.297 87.213 175.931 88.8636C174.779 90.2566 173.88 89.4831 173.88 87.0982C173.88 84.2611 173.391 84 168.074 84H163.745L162.932 84.8694C162.485 85.3482 162.12 85.8473 162.12 85.9796C162.12 86.8616 160.301 86.8469 160.021 85.9621C159.524 84.3962 158.587 84 155.382 84C152.435 84 151.48 83.7305 151.48 82.8982C151.48 81.6004 150.09 81.2 145.582 81.2C141.185 81.2 140.28 81.0117 140.28 80.0982C140.28 79.6061 138.761 78.4 138.141 78.4C137.644 78.4 137.478 78.2432 137.471 77.77C137.45 76.2559 136.027 75.3473 135.112 76.2629ZM157.835 78.722C156.867 79.2638 156.763 79.9659 157.535 80.7387L158.256 81.4597L159.027 80.7002C160.057 79.6852 159.063 78.0346 157.835 78.722ZM191.052 79.1231L190.334 79.8406L191.103 80.6428L191.871 81.445L192.636 80.6925C193.332 80.0072 193.364 79.8854 193.003 79.3338C192.388 78.393 191.841 78.3342 191.052 79.1231ZM137.2 79.38C137.2 80.696 135.911 81.5507 135.12 80.7597C134.122 79.7622 134.548 78.68 135.94 78.68C137.097 78.68 137.2 78.7367 137.2 79.38ZM124.235 81.522C123.267 82.0638 123.163 82.7659 123.935 83.5387L124.656 84.2597L125.427 83.5002C126.457 82.4852 125.463 80.8346 124.235 81.522ZM209.745 82.11C210.583 83.7403 211.421 84.28 213.112 84.28C215.221 84.28 215.6 84.6615 215.6 86.7818C215.6 88.34 216.444 89.88 217.298 89.88C218.245 89.88 218.581 91.0987 217.84 91.84C216.928 92.7521 213.08 92.6723 213.08 91.7406C213.08 90.3084 211.926 89.6 209.593 89.6H207.48V85.54V81.48H208.45C209.173 81.48 209.503 81.6403 209.745 82.11ZM188.301 93.0741C187.267 94.1073 187.294 96.39 188.353 97.4946C189.874 99.0822 193.48 98.0742 193.48 96.0617C193.48 95.6592 193.659 95.48 194.062 95.48C194.382 95.48 195.007 95.116 195.452 94.6708L196.261 93.8616L195.574 93.1196C194.583 92.0514 193.2 92.9271 193.2 94.6218C193.2 95.753 191.654 95.3806 190.662 94.01C189.472 92.3671 189.139 92.2355 188.301 93.0741ZM213.835 106.722C212.867 107.264 212.763 107.966 213.535 108.739L214.256 109.46L215.027 108.7C216.057 107.685 215.063 106.035 213.835 106.722ZM87.8353 112.322C86.8672 112.864 86.7629 113.566 87.535 114.339L88.256 115.06L89.0267 114.3C90.0571 113.285 89.0631 111.635 87.8353 112.322ZM79.4353 123.522C78.4672 124.064 78.3629 124.766 79.135 125.539L79.856 126.26L80.6267 125.5C81.6571 124.485 80.6631 122.835 79.4353 123.522ZM199.487 129.487C198.111 130.864 198.975 134.68 200.663 134.68C200.859 134.68 201.166 134.963 201.345 135.31C201.522 135.656 201.985 136.279 202.371 136.694L203.075 137.448L203.877 136.646C205.031 135.492 205.109 130.745 203.993 129.541C203.02 128.49 200.514 128.46 199.487 129.487ZM87.8353 131.922C86.8672 132.464 86.7629 133.166 87.535 133.939L88.256 134.66L89.0267 133.9C90.0571 132.885 89.0631 131.235 87.8353 131.922ZM177.454 131.9C176.462 132.478 176.359 133.162 177.145 133.948C178.31 135.114 183.061 135.062 184.252 133.871L185.061 133.062L184.384 132.331C183.651 131.539 178.611 131.226 177.454 131.9ZM127.035 137.522C126.067 138.064 125.963 138.766 126.735 139.539L127.456 140.26L128.227 139.5C129.257 138.485 128.263 136.835 127.035 137.522ZM157.512 137.863C157.121 138.254 156.8 138.895 156.8 139.287C156.8 139.821 156.654 140 156.222 140C154.54 140 153.708 141.312 154.737 142.34L155.46 143.063L156.27 142.253C156.715 141.807 157.08 141.182 157.08 140.862C157.08 140.459 157.259 140.28 157.662 140.28C158.541 140.28 159.898 138.819 159.496 138.305C158.634 137.201 158.257 137.117 157.512 137.863ZM196.652 137.923L195.934 138.641L196.703 139.443L197.471 140.245L198.236 139.492C198.932 138.807 198.964 138.685 198.603 138.134C197.988 137.193 197.441 137.134 196.652 137.923ZM82.2353 140.322C81.2672 140.864 81.1629 141.566 81.935 142.339L82.656 143.06L83.4267 142.3C84.4571 141.285 83.4631 139.635 82.2353 140.322ZM115.835 140.322C114.867 140.864 114.763 141.566 115.535 142.339L116.256 143.06L117.027 142.3C118.057 141.285 117.063 139.635 115.835 140.322ZM138.235 143.122C137.267 143.664 137.163 144.366 137.935 145.139L138.656 145.86L139.427 145.1C140.457 144.085 139.463 142.435 138.235 143.122ZM149.435 143.122C148.467 143.664 148.363 144.366 149.135 145.139L149.856 145.86L150.627 145.1C151.657 144.085 150.663 142.435 149.435 143.122ZM169.035 143.122C168.067 143.664 167.963 144.366 168.735 145.139L169.456 145.86L170.227 145.1C171.257 144.085 170.263 142.435 169.035 143.122ZM118.635 145.922C117.667 146.464 117.563 147.166 118.335 147.939L119.056 148.66L119.827 147.9C120.857 146.885 119.863 145.235 118.635 145.922ZM190.4 149.217C190.4 150.693 189.294 151.553 188.417 150.759C187.323 149.769 187.702 148.68 189.14 148.68C190.196 148.68 190.4 148.768 190.4 149.217ZM135.451 159.914C134.076 160.682 134.861 162.68 136.538 162.68C137.047 162.68 137.2 162.833 137.2 163.341C137.2 164.347 138.537 165.583 139.059 165.061C139.28 164.84 139.64 164.48 139.861 164.259C140.383 163.737 139.147 162.4 138.141 162.4C137.644 162.4 137.478 162.243 137.471 161.77C137.455 160.64 136.205 159.491 135.451 159.914ZM181.709 163.22C182.23 164.194 181.392 165.2 180.058 165.2C179.56 165.2 179.48 165.026 179.48 163.94C179.48 162.501 181.053 161.993 181.709 163.22ZM127.035 165.522C126.067 166.064 125.963 166.766 126.735 167.539L127.456 168.26L128.227 167.5C129.257 166.485 128.263 164.835 127.035 165.522ZM143.835 165.522C142.867 166.064 142.763 166.766 143.535 167.539L144.256 168.26L145.027 167.5C146.057 166.485 145.063 164.835 143.835 165.522ZM169.035 165.522C168.067 166.064 167.963 166.766 168.735 167.539L169.456 168.26L170.227 167.5C171.257 166.485 170.263 164.835 169.035 165.522ZM93.4353 171.122C92.4672 171.664 92.3629 172.366 93.135 173.139L93.856 173.86L94.6267 173.1C95.6571 172.085 94.6631 170.435 93.4353 171.122ZM141.035 171.122C140.067 171.664 139.963 172.366 140.735 173.139L141.456 173.86L142.227 173.1C143.257 172.085 142.263 170.435 141.035 171.122ZM82.2353 173.922C81.2672 174.464 81.1629 175.166 81.935 175.939L82.656 176.66L83.4267 175.9C84.4571 174.885 83.4631 173.235 82.2353 173.922ZM169.035 173.922C168.067 174.464 167.963 175.166 168.735 175.939L169.456 176.66L170.227 175.9C171.257 174.885 170.263 173.235 169.035 173.922ZM101.835 176.722C100.867 177.264 100.763 177.966 101.535 178.739L102.256 179.46L103.027 178.7C104.057 177.685 103.063 176.035 101.835 176.722ZM171.835 179.522C170.867 180.064 170.763 180.766 171.535 181.539L172.256 182.26L173.027 181.5C174.057 180.485 173.063 178.835 171.835 179.522ZM191.052 182.723L190.334 183.441L191.103 184.243L191.871 185.045L192.636 184.292C193.332 183.607 193.364 183.485 193.003 182.934C192.388 181.993 191.841 181.934 191.052 182.723ZM75.6 182.98C75.6 184.296 74.3113 185.151 73.5203 184.36C72.5613 183.401 73.1843 182.28 74.676 182.28C75.4747 182.28 75.6 182.374 75.6 182.98ZM104.635 187.922C103.667 188.464 103.563 189.166 104.335 189.939L105.056 190.66L105.827 189.9C106.857 188.885 105.863 187.235 104.635 187.922ZM166.235 187.922C165.267 188.464 165.163 189.166 165.935 189.939L166.656 190.66L167.427 189.9C168.457 188.885 167.463 187.235 166.235 187.922ZM188.252 188.323L187.534 189.041L188.303 189.843L189.071 190.645L189.836 189.892C190.532 189.207 190.564 189.085 190.203 188.534C189.588 187.593 189.041 187.534 188.252 188.323ZM193.852 188.323L193.134 189.041L193.903 189.843L194.671 190.645L195.436 189.892C196.132 189.207 196.164 189.085 195.803 188.534C195.188 187.593 194.641 187.534 193.852 188.323ZM79.4353 190.722C78.4672 191.264 78.3629 191.966 79.135 192.739L79.856 193.46L80.6267 192.7C81.6571 191.685 80.6631 190.035 79.4353 190.722ZM98.7119 191.063C97.6731 192.102 97.6829 194.487 98.7301 195.534L99.4595 196.263L100.27 195.453C101.574 194.149 101.398 191.898 99.9019 190.725C99.4889 190.402 99.3265 190.448 98.7119 191.063ZM174.635 190.722C173.667 191.264 173.563 191.966 174.335 192.739L175.056 193.46L175.827 192.7C176.857 191.685 175.863 190.035 174.635 190.722ZM182.652 191.123L181.934 191.841L182.703 192.643L183.471 193.445L184.236 192.692C184.932 192.007 184.964 191.885 184.603 191.334C183.988 190.393 183.441 190.334 182.652 191.123ZM202.252 191.123L201.534 191.841L202.303 192.643L203.071 193.445L203.836 192.692C204.532 192.007 204.564 191.885 204.203 191.334C203.588 190.393 203.041 190.334 202.252 191.123ZM85.0353 196.322C84.0672 196.864 83.9629 197.566 84.735 198.339L85.456 199.06L86.2267 198.3C87.2571 197.285 86.2631 195.635 85.0353 196.322ZM196.652 196.723L195.934 197.441L196.703 198.243L197.471 199.045L198.236 198.292C198.932 197.607 198.964 197.485 198.603 196.934C197.988 195.993 197.441 195.934 196.652 196.723ZM75.1597 205.12C75.9675 205.927 75.7351 207.2 74.7803 207.2C73.4111 207.2 72.5732 205.859 73.416 205.016C73.8808 204.551 74.6361 204.596 75.1597 205.12ZM101.835 210.322C100.867 210.864 100.763 211.566 101.535 212.339L102.256 213.06L103.027 212.3C104.057 211.285 103.063 209.635 101.835 210.322ZM99.0353 218.722C98.0672 219.264 97.9629 219.966 98.735 220.739L99.456 221.46L100.227 220.7C101.257 219.685 100.263 218.035 99.0353 218.722ZM187.6 227.617C187.6 229.093 186.494 229.953 185.617 229.159C184.558 228.201 185.129 227.08 186.676 227.08C187.4 227.08 187.6 227.196 187.6 227.617ZM205.052 230.323L204.334 231.041L205.103 231.843L205.871 232.645L206.636 231.892C207.332 231.207 207.364 231.085 207.003 230.534C206.388 229.593 205.841 229.534 205.052 230.323Z" fill="#040404"/>
</g>
<defs>
<clipPath id="clip0_14_41">
<rect width="280" height="280" rx="50" fill="white"/>
</clipPath>
</defs>
</svg>
