<svg id="svg" version="1.1" xmlns="http://www.w3.org/2000/svg" xmlns:xlink="http://www.w3.org/1999/xlink" width="400" height="400" viewBox="0, 0, 400,400"><g id="svgg"><path id="path0" d="M192.880 68.880 C 192.616 69.144,192.400 69.518,192.400 69.711 C 192.400 70.207,190.338 72.194,189.491 72.514 C 189.101 72.661,188.661 73.101,188.514 73.491 C 188.367 73.881,187.760 74.690,187.166 75.288 L 186.085 76.376 185.057 75.348 C 184.491 74.782,183.920 73.978,183.787 73.561 C 182.949 70.919,180.400 72.513,180.400 75.680 C 180.400 77.773,180.260 78.202,179.243 79.219 L 178.085 80.376 177.043 79.334 C 176.159 78.450,176.000 77.937,176.000 75.974 C 176.000 72.855,175.498 72.400,172.051 72.400 C 168.998 72.400,168.400 72.774,168.400 74.680 C 168.400 75.801,168.543 76.000,169.345 76.000 C 170.895 76.000,172.547 77.910,171.716 78.742 C 171.353 79.104,170.838 79.619,170.570 79.887 C 169.910 80.547,168.000 78.658,168.000 77.345 C 168.000 76.618,167.782 76.400,167.055 76.400 C 166.032 76.400,164.177 74.787,163.787 73.561 C 163.335 72.136,160.400 72.239,160.400 73.680 C 160.400 74.201,158.365 76.184,157.491 76.514 C 157.101 76.661,156.661 77.101,156.514 77.491 C 155.627 79.841,154.320 80.400,149.711 80.400 C 144.580 80.400,144.400 80.512,144.400 83.711 C 144.400 85.770,144.257 86.205,143.243 87.219 L 142.085 88.376 141.043 87.334 C 140.159 86.450,140.000 85.937,140.000 83.974 C 140.000 81.538,139.380 80.400,138.051 80.400 C 136.845 80.400,136.400 81.292,136.400 83.711 C 136.400 86.300,134.980 88.400,133.231 88.400 C 132.656 88.400,132.400 88.656,132.400 89.231 C 132.400 89.688,131.879 90.582,131.243 91.219 L 130.085 92.376 129.053 91.343 C 127.583 89.874,128.772 88.000,131.174 88.000 C 132.286 88.000,132.435 82.092,131.350 81.007 C 130.527 80.184,129.213 80.367,128.641 81.385 C 127.999 82.527,126.310 84.205,125.491 84.514 C 125.101 84.661,124.661 85.101,124.514 85.491 C 123.791 87.405,122.148 88.400,119.711 88.400 C 116.779 88.400,116.400 88.779,116.400 91.711 C 116.400 94.148,115.405 95.791,113.491 96.514 C 113.101 96.661,112.661 97.101,112.514 97.491 C 112.169 98.405,110.405 100.169,109.491 100.514 C 109.101 100.661,108.661 101.101,108.514 101.491 C 108.205 102.309,106.529 103.997,105.385 104.643 C 104.690 105.035,104.587 105.599,104.486 109.587 C 104.372 114.121,103.433 116.400,101.680 116.400 C 100.239 116.400,100.136 119.335,101.561 119.787 C 101.978 119.920,102.782 120.491,103.348 121.057 L 104.376 122.085 103.273 123.143 C 102.666 123.724,101.816 124.399,101.385 124.641 C 100.771 124.986,100.573 125.595,100.478 127.425 C 100.311 130.619,100.544 131.281,102.142 132.141 C 102.899 132.548,103.848 133.494,104.251 134.243 C 104.654 134.992,105.285 135.700,105.652 135.816 C 106.019 135.933,106.782 136.491,107.348 137.057 L 108.376 138.085 107.273 139.143 C 106.666 139.724,105.816 140.399,105.385 140.641 C 103.928 141.461,104.072 147.315,105.561 147.787 C 106.787 148.177,108.400 150.032,108.400 151.055 C 108.400 151.782,108.618 152.000,109.345 152.000 C 110.781 152.000,112.547 153.910,111.801 154.656 C 111.486 154.971,110.971 155.486,110.656 155.801 C 109.910 156.547,108.000 154.781,108.000 153.345 C 108.000 152.278,105.809 151.951,104.880 152.880 C 103.639 154.121,104.542 160.000,105.974 160.000 C 107.194 160.000,108.400 162.200,108.400 164.426 C 108.400 166.605,109.014 168.000,109.974 168.000 C 110.148 168.000,110.760 168.469,111.334 169.043 L 112.376 170.085 111.219 171.243 C 110.202 172.260,109.773 172.400,107.680 172.400 C 104.513 172.400,102.919 174.949,105.561 175.787 C 109.822 177.140,109.698 186.217,105.385 188.641 C 103.092 189.929,104.688 192.000,107.974 192.000 C 109.937 192.000,110.450 192.159,111.334 193.043 L 112.376 194.085 111.273 195.143 C 110.666 195.724,109.816 196.399,109.385 196.643 C 108.663 197.050,108.591 197.609,108.490 203.584 L 108.380 210.082 107.274 211.141 C 106.666 211.723,105.816 212.399,105.385 212.641 C 103.928 213.461,104.072 219.315,105.561 219.787 C 109.475 221.030,109.582 232.400,105.680 232.400 C 104.239 232.400,104.136 235.335,105.561 235.787 C 105.978 235.920,106.782 236.491,107.348 237.057 L 108.376 238.085 107.273 239.143 C 106.666 239.724,105.816 240.399,105.385 240.641 C 103.928 241.461,104.072 247.315,105.561 247.787 C 105.978 247.920,106.782 248.491,107.348 249.057 L 108.376 250.085 107.219 251.243 C 106.582 251.879,105.890 252.400,105.680 252.400 C 104.239 252.400,104.136 255.335,105.561 255.787 C 106.787 256.177,108.400 258.032,108.400 259.055 C 108.400 259.782,108.618 260.000,109.345 260.000 C 113.415 260.000,113.444 266.351,109.385 268.643 C 108.665 269.049,108.591 269.611,108.486 275.443 C 108.349 283.020,108.383 283.194,110.142 284.141 C 110.899 284.548,111.848 285.494,112.251 286.243 C 112.654 286.992,113.285 287.700,113.652 287.816 C 118.845 289.465,116.889 296.400,111.231 296.400 L 108.400 296.400 108.400 299.231 C 108.400 302.195,107.791 303.287,105.385 304.641 C 103.928 305.461,104.072 311.315,105.561 311.787 C 105.978 311.920,106.782 312.491,107.348 313.057 L 108.376 314.085 107.273 315.143 C 106.666 315.724,105.816 316.399,105.385 316.643 C 104.291 317.260,103.979 326.322,105.017 327.359 C 106.093 328.436,112.000 328.279,112.000 327.174 C 112.000 324.772,113.874 323.583,115.343 325.053 L 116.376 326.085 115.219 327.243 C 114.582 327.879,113.688 328.400,113.231 328.400 C 112.656 328.400,112.400 328.656,112.400 329.231 C 112.400 330.064,110.395 332.400,109.680 332.400 C 107.893 332.400,108.228 335.111,110.142 336.141 C 110.899 336.548,111.833 337.467,112.218 338.182 C 112.603 338.897,113.489 339.789,114.187 340.165 C 114.885 340.541,115.790 341.423,116.198 342.124 C 117.311 344.038,116.932 343.987,130.100 343.994 C 144.461 344.001,144.000 344.127,144.000 340.182 C 144.000 337.077,145.077 336.000,148.182 336.000 C 151.198 336.000,152.000 335.198,152.000 332.182 C 152.000 329.858,152.109 329.679,154.948 327.330 L 156.000 326.461 156.000 316.059 C 156.000 305.495,155.852 304.400,154.426 304.400 C 153.230 304.400,152.000 302.198,151.994 300.045 C 151.987 297.478,151.856 297.205,150.167 296.223 C 147.505 294.676,147.597 294.102,150.948 291.330 C 151.858 290.578,152.000 290.154,152.000 288.191 C 152.000 285.992,153.473 283.600,154.828 283.600 C 156.410 283.600,156.012 281.204,154.276 280.269 C 151.490 278.768,151.578 278.117,154.948 275.330 C 156.843 273.764,156.395 264.400,154.426 264.400 C 153.250 264.400,152.000 262.199,152.000 260.127 C 152.000 257.865,152.120 257.669,154.948 255.330 C 155.871 254.568,156.000 254.165,156.000 252.059 C 156.000 248.932,155.481 248.400,152.426 248.400 C 148.667 248.400,146.862 245.866,149.583 244.409 C 150.003 244.184,152.173 244.000,154.404 244.000 C 158.297 244.000,158.496 243.958,159.330 242.948 C 162.102 239.597,162.676 239.505,164.223 242.167 C 165.281 243.987,165.282 243.987,172.045 243.994 C 178.408 244.000,180.400 244.580,180.400 246.426 C 180.400 247.615,181.765 248.000,185.974 248.000 C 190.524 248.000,191.892 248.569,192.584 250.748 C 192.700 251.115,193.394 251.738,194.126 252.132 C 194.857 252.526,195.790 253.423,196.198 254.124 C 197.554 256.456,201.688 256.934,203.330 254.948 C 205.669 252.120,205.865 252.000,208.127 252.000 C 209.925 252.000,210.467 252.176,211.334 253.043 L 212.376 254.085 211.219 255.243 C 210.582 255.879,209.890 256.400,209.680 256.400 C 207.910 256.400,208.223 259.108,210.111 260.124 C 210.851 260.523,211.790 261.423,212.198 262.124 C 213.207 263.860,213.468 263.987,216.045 263.994 C 218.198 264.000,220.400 265.230,220.400 266.426 C 220.400 267.386,221.795 268.000,223.974 268.000 C 226.400 268.000,228.025 268.989,228.606 270.820 C 228.735 271.226,229.174 271.665,229.580 271.794 C 231.385 272.366,232.400 274.005,232.406 276.355 C 232.413 278.925,232.542 279.194,234.246 280.184 C 234.931 280.583,235.817 281.469,236.216 282.154 C 237.236 283.909,237.434 283.987,240.900 283.994 C 243.768 284.000,244.000 283.938,244.000 283.174 C 244.000 280.772,245.874 279.583,247.343 281.053 L 248.376 282.085 247.219 283.243 C 246.582 283.879,245.688 284.400,245.231 284.400 C 244.460 284.400,244.400 284.628,244.400 287.571 C 244.400 291.548,244.765 292.000,247.974 292.000 C 250.200 292.000,252.400 293.206,252.400 294.426 C 252.400 295.138,253.731 296.000,254.829 296.000 C 255.746 296.000,256.000 295.821,256.000 295.174 C 256.000 292.753,257.976 291.502,259.391 293.028 L 260.373 294.088 259.217 295.244 C 258.582 295.880,257.688 296.400,257.231 296.400 C 255.803 296.400,255.989 302.481,257.448 303.481 C 259.921 305.178,260.400 305.982,260.400 308.440 C 260.400 310.496,260.520 310.845,261.448 311.481 C 263.921 313.178,264.400 313.982,264.400 316.440 C 264.400 318.496,264.520 318.845,265.448 319.481 C 267.290 320.745,268.400 322.090,268.400 323.058 C 268.400 323.801,268.616 324.000,269.419 324.000 C 271.186 324.000,272.346 325.714,272.482 328.525 C 272.591 330.795,272.696 331.037,273.929 331.865 C 274.659 332.357,275.785 333.488,276.431 334.379 C 277.580 335.965,277.657 336.000,280.022 336.000 C 283.324 336.000,284.400 337.081,284.400 340.396 C 284.400 344.128,286.253 345.027,288.028 342.155 C 289.637 339.551,290.430 339.612,292.543 342.500 C 293.846 344.281,294.183 344.335,295.330 342.948 C 297.942 339.791,297.313 340.000,304.182 340.000 C 311.657 340.000,312.000 339.832,312.000 336.182 C 312.000 333.865,311.947 333.956,314.848 331.343 C 315.372 330.872,316.274 329.927,316.854 329.243 C 317.802 328.125,318.134 328.000,320.154 328.000 C 322.335 328.000,324.000 327.147,324.000 326.029 C 324.000 325.575,322.864 324.400,322.426 324.400 C 320.105 324.400,319.920 321.409,322.155 320.028 C 324.166 318.785,324.479 317.133,322.803 316.601 C 322.406 316.475,321.613 315.904,321.040 315.331 L 320.000 314.291 320.000 305.974 C 320.000 296.248,320.057 296.400,316.426 296.400 C 314.200 296.400,312.000 295.194,312.000 293.974 C 312.000 293.018,310.605 292.400,308.447 292.400 C 305.933 292.400,304.937 291.798,303.794 289.588 C 303.456 288.935,302.948 288.400,302.665 288.400 C 301.345 288.400,300.000 286.205,300.000 284.052 C 300.000 281.798,299.487 280.400,298.661 280.400 C 296.889 280.400,296.000 278.279,296.000 274.052 C 296.000 269.960,295.630 268.400,294.661 268.400 C 294.063 268.400,292.301 266.595,291.635 265.300 C 291.229 264.511,290.861 264.400,288.661 264.400 C 286.009 264.400,284.867 263.695,283.635 261.300 C 283.380 260.805,282.942 260.400,282.661 260.400 C 282.063 260.400,280.301 258.595,279.635 257.300 C 279.380 256.805,278.942 256.400,278.661 256.400 C 278.063 256.400,276.301 254.595,275.635 253.300 C 275.380 252.805,274.942 252.400,274.661 252.400 C 274.058 252.400,272.300 250.592,271.622 249.276 C 271.038 248.142,269.302 248.205,268.640 249.385 C 268.398 249.816,267.729 250.661,267.153 251.262 L 266.107 252.355 265.053 251.256 C 264.188 250.353,264.000 249.780,264.000 248.052 C 264.000 244.815,263.626 244.400,260.708 244.400 C 257.016 244.400,256.000 243.305,256.000 239.325 C 256.000 236.517,255.962 236.400,255.055 236.400 C 253.654 236.400,251.907 234.520,252.419 233.564 C 252.905 232.657,254.061 232.000,255.174 232.000 C 256.104 232.000,256.317 230.540,255.586 229.174 C 255.214 228.479,254.711 228.400,250.640 228.400 C 244.141 228.400,242.195 226.475,246.195 224.003 C 246.968 223.526,247.600 222.988,247.600 222.810 C 247.600 220.997,249.928 220.000,254.160 220.000 C 257.867 220.000,258.501 219.899,259.200 219.200 C 260.322 218.078,260.275 216.400,259.122 216.400 C 257.769 216.400,255.938 214.464,256.426 213.551 C 257.543 211.464,260.400 212.548,260.400 215.058 C 260.400 216.409,262.178 216.342,263.330 214.948 C 265.281 212.590,266.011 212.000,266.982 212.000 C 267.744 212.000,268.000 211.792,268.000 211.174 C 268.000 210.042,268.661 208.903,269.613 208.393 C 270.604 207.863,272.400 209.581,272.400 211.058 C 272.400 212.389,277.897 212.503,279.200 211.200 C 280.322 210.078,280.275 208.400,279.122 208.400 C 277.769 208.400,275.938 206.464,276.426 205.551 C 277.543 203.464,280.400 204.548,280.400 207.058 C 280.400 208.409,282.178 208.342,283.330 206.948 C 284.297 205.780,285.416 204.633,286.848 203.343 C 287.372 202.872,288.287 201.913,288.882 201.213 C 290.158 199.711,290.597 199.847,292.374 202.300 C 293.768 204.225,294.077 204.323,295.200 203.200 C 295.809 202.591,296.000 201.867,296.000 200.160 C 296.000 198.005,297.482 195.600,298.810 195.600 C 298.988 195.600,299.519 194.979,299.988 194.220 C 300.457 193.461,301.443 192.468,302.180 192.012 C 304.095 190.829,304.418 188.400,302.661 188.400 C 301.843 188.400,300.000 186.238,300.000 185.278 C 300.000 184.627,299.761 184.400,299.075 184.400 C 298.125 184.400,296.456 182.896,295.635 181.300 C 295.380 180.805,294.942 180.400,294.661 180.400 C 294.380 180.400,293.645 179.873,293.028 179.229 L 291.906 178.058 292.935 177.029 C 293.795 176.169,294.331 176.000,296.201 176.000 C 299.503 176.000,300.400 177.081,300.400 181.058 L 300.400 184.000 303.430 184.000 C 306.215 184.000,306.531 183.915,307.330 182.948 C 308.435 181.613,309.613 180.435,310.948 179.330 C 311.871 178.568,312.000 178.165,312.000 176.059 C 312.000 172.932,311.481 172.400,308.426 172.400 C 304.667 172.400,302.862 169.866,305.583 168.409 C 306.003 168.184,308.159 168.000,310.374 168.000 C 313.867 168.000,314.506 167.894,315.200 167.200 C 316.701 165.699,316.097 160.400,314.426 160.400 C 312.580 160.400,312.000 158.408,311.994 152.045 C 311.987 145.282,311.987 145.281,310.167 144.223 C 307.505 142.676,307.597 142.102,310.948 139.330 C 313.140 137.518,311.852 136.400,307.571 136.400 L 304.400 136.400 304.400 139.231 C 304.400 141.814,304.300 142.162,303.253 143.208 L 302.107 144.355 301.053 143.256 C 298.816 140.920,300.123 136.000,302.982 136.000 C 303.922 136.000,304.000 135.862,304.000 134.200 L 304.000 132.400 301.122 132.400 C 297.921 132.400,296.000 131.247,296.000 129.325 C 296.000 128.625,295.775 128.400,295.075 128.400 C 292.893 128.400,292.000 126.559,292.000 122.060 C 292.000 117.516,292.746 116.000,294.982 116.000 L 296.000 116.000 296.000 110.974 C 296.000 105.153,295.746 104.400,293.786 104.400 C 292.650 104.400,292.400 104.550,292.400 105.231 C 292.400 105.688,291.884 106.578,291.253 107.208 L 290.107 108.355 289.006 107.206 L 287.906 106.058 288.935 105.029 C 289.501 104.463,290.421 104.000,290.982 104.000 C 291.983 104.000,292.000 103.949,292.000 100.974 C 292.000 96.741,291.751 96.400,288.661 96.400 C 285.269 96.400,284.000 95.216,284.000 92.052 C 284.000 88.803,283.631 88.400,280.661 88.400 C 278.003 88.400,276.869 87.697,275.622 85.276 C 275.038 84.142,273.302 84.205,272.640 85.385 C 272.398 85.816,271.729 86.661,271.153 87.262 L 270.107 88.355 269.053 87.256 C 268.188 86.353,268.000 85.780,268.000 84.052 C 268.000 80.483,267.878 80.400,262.627 80.400 L 258.083 80.400 256.841 78.986 C 256.159 78.208,255.600 77.407,255.600 77.205 C 255.600 77.003,254.993 76.550,254.252 76.198 C 253.510 75.846,252.565 74.930,252.152 74.162 C 251.112 72.231,248.400 71.883,248.400 73.680 C 248.400 73.890,247.879 74.582,247.243 75.219 L 246.085 76.376 245.043 75.334 C 244.469 74.760,244.000 74.148,244.000 73.974 C 244.000 72.635,242.744 72.400,235.571 72.400 C 228.578 72.400,228.400 72.421,228.400 73.231 C 228.400 77.441,217.139 77.818,215.816 73.652 C 215.700 73.285,214.992 72.654,214.243 72.251 C 213.494 71.848,212.548 70.899,212.141 70.142 C 210.536 67.161,208.400 68.039,208.400 71.680 C 208.400 73.773,208.260 74.202,207.243 75.219 L 206.085 76.376 205.043 75.334 C 204.159 74.450,204.000 73.937,204.000 71.974 C 204.000 68.688,201.929 67.092,200.641 69.385 C 200.398 69.816,199.724 70.666,199.143 71.273 L 198.085 72.376 197.043 71.334 C 196.469 70.760,196.000 70.148,196.000 69.974 C 196.000 68.771,193.770 67.990,192.880 68.880 M220.880 68.880 C 219.153 70.607,220.915 72.000,224.829 72.000 L 228.000 72.000 228.000 70.829 C 228.000 68.642,222.596 67.164,220.880 68.880 M199.334 81.043 L 200.376 82.085 199.219 83.243 C 196.967 85.494,191.088 84.051,192.415 81.572 C 193.444 79.650,197.621 79.330,199.334 81.043 M207.882 81.560 C 208.189 82.051,208.025 82.455,207.181 83.286 L 206.080 84.371 205.050 83.341 C 204.242 82.533,204.105 82.151,204.415 81.572 C 205.296 79.926,206.858 79.920,207.882 81.560 M231.882 81.560 C 232.189 82.051,232.025 82.455,231.181 83.286 L 230.080 84.371 229.050 83.341 C 228.242 82.533,228.105 82.151,228.415 81.572 C 229.296 79.926,230.858 79.920,231.882 81.560 M251.882 81.560 C 252.189 82.051,252.025 82.455,251.181 83.286 L 250.080 84.371 249.050 83.341 C 248.242 82.533,248.105 82.151,248.415 81.572 C 249.296 79.926,250.858 79.920,251.882 81.560 M183.882 85.560 C 184.189 86.051,184.025 86.455,183.181 87.286 L 182.080 88.371 181.050 87.341 C 180.242 86.533,180.105 86.151,180.415 85.572 C 181.296 83.926,182.858 83.920,183.882 85.560 M243.882 85.560 C 244.189 86.051,244.025 86.455,243.181 87.286 L 242.080 88.371 241.050 87.341 C 240.242 86.533,240.105 86.151,240.415 85.572 C 241.296 83.926,242.858 83.920,243.882 85.560 M263.719 85.334 C 264.235 86.122,264.188 86.296,263.194 87.275 L 262.102 88.350 261.004 87.204 L 259.906 86.058 260.931 85.033 C 262.058 83.906,262.840 83.990,263.719 85.334 M227.882 89.560 C 228.189 90.051,228.025 90.455,227.181 91.286 L 226.080 92.371 225.050 91.341 C 224.242 90.533,224.105 90.151,224.415 89.572 C 225.296 87.926,226.858 87.920,227.882 89.560 M255.776 89.420 C 256.119 89.943,256.400 90.738,256.400 91.186 C 256.400 91.792,256.661 92.000,257.419 92.000 C 258.003 92.000,258.850 92.445,259.403 93.041 L 260.369 94.083 259.284 95.202 L 258.200 96.322 257.100 95.286 C 256.495 94.716,256.000 93.834,256.000 93.325 C 256.000 92.619,255.776 92.400,255.055 92.400 C 253.662 92.400,251.907 90.520,252.415 89.572 C 253.324 87.874,254.722 87.811,255.776 89.420 M247.882 97.560 C 248.189 98.051,248.025 98.455,247.181 99.286 L 246.080 100.371 245.050 99.341 C 244.242 98.533,244.105 98.151,244.415 97.572 C 245.296 95.926,246.858 95.920,247.882 97.560 M271.776 97.420 C 272.995 99.280,272.646 105.815,271.253 107.208 L 270.107 108.355 269.053 107.256 C 267.494 105.628,267.442 98.522,268.978 96.986 C 270.078 95.886,270.850 96.006,271.776 97.420 M191.852 101.579 C 192.426 102.313,190.487 104.400,189.231 104.400 C 188.656 104.400,188.400 104.656,188.400 105.231 C 188.400 105.688,187.879 106.582,187.243 107.219 L 186.085 108.376 185.053 107.343 C 183.583 105.874,184.772 104.000,187.174 104.000 C 187.792 104.000,188.000 103.744,188.000 102.982 C 188.000 100.449,190.312 99.607,191.852 101.579 M279.719 101.334 C 280.235 102.122,280.188 102.296,279.194 103.275 L 278.102 104.350 277.004 103.204 L 275.906 102.058 276.931 101.033 C 278.058 99.906,278.840 99.990,279.719 101.334 M211.852 105.579 C 212.426 106.313,210.487 108.400,209.231 108.400 C 208.656 108.400,208.400 108.656,208.400 109.231 C 208.400 109.688,207.879 110.582,207.243 111.219 L 206.085 112.376 205.053 111.343 C 203.583 109.874,204.772 108.000,207.174 108.000 C 207.792 108.000,208.000 107.744,208.000 106.982 C 208.000 104.449,210.312 103.607,211.852 105.579 M255.719 105.334 C 256.235 106.123,256.188 106.297,255.183 107.286 L 254.080 108.371 253.050 107.341 C 252.242 106.533,252.105 106.151,252.415 105.572 C 253.303 103.913,254.722 103.811,255.719 105.334 M167.882 109.560 C 168.189 110.051,168.025 110.455,167.181 111.286 L 166.080 112.371 165.050 111.341 C 164.242 110.533,164.105 110.151,164.415 109.572 C 165.296 107.926,166.858 107.920,167.882 109.560 M195.887 109.600 C 196.155 109.930,196.380 110.605,196.387 111.100 C 196.397 111.776,196.635 112.000,197.345 112.000 C 198.230 112.000,200.400 113.723,200.400 114.426 C 200.400 115.731,201.693 116.000,207.974 116.000 C 214.415 116.000,216.400 116.572,216.400 118.426 C 216.400 119.615,217.765 120.000,221.974 120.000 C 226.553 120.000,227.891 120.566,228.601 122.803 C 229.002 124.067,231.600 124.088,231.600 122.828 C 231.600 122.639,232.122 121.926,232.760 121.242 L 233.921 120.000 240.106 120.000 C 247.702 120.000,248.400 120.373,248.400 124.426 C 248.400 127.833,249.684 128.938,251.330 126.948 C 253.281 124.590,254.011 124.000,254.982 124.000 C 255.744 124.000,256.000 123.792,256.000 123.174 C 256.000 120.753,257.976 119.502,259.391 121.028 L 260.373 122.088 259.217 123.244 C 258.582 123.880,257.688 124.400,257.231 124.400 C 256.011 124.400,255.929 138.250,257.142 139.348 C 258.103 140.217,258.977 139.856,260.028 138.155 C 262.400 134.317,264.400 136.116,264.400 142.089 C 264.400 146.283,263.781 147.649,261.491 148.514 C 261.101 148.661,260.661 149.101,260.514 149.491 C 260.205 150.309,258.530 151.996,257.385 152.643 C 255.199 153.877,256.745 156.000,259.829 156.000 C 262.553 156.000,263.012 155.798,264.028 154.155 C 266.400 150.317,268.400 152.116,268.400 158.089 C 268.400 163.241,267.614 164.287,263.593 164.480 C 261.594 164.576,260.993 164.760,260.642 165.385 C 260.074 166.393,258.391 168.075,257.385 168.641 C 256.055 169.387,256.063 172.000,257.395 172.000 C 258.005 172.000,258.839 172.432,259.403 173.041 L 260.369 174.083 259.284 175.202 L 258.200 176.322 257.100 175.286 C 256.495 174.716,256.000 173.834,256.000 173.325 C 256.000 172.495,255.815 172.400,254.200 172.400 C 252.644 172.400,252.400 172.513,252.400 173.231 C 252.400 174.305,250.305 176.400,249.231 176.400 C 248.468 176.400,248.400 176.632,248.400 179.231 C 248.400 181.820,248.301 182.160,247.243 183.219 L 246.085 184.376 245.043 183.334 C 242.784 181.075,244.126 176.000,246.982 176.000 C 247.806 176.000,248.000 175.806,248.000 174.982 C 248.000 173.671,249.671 172.000,250.982 172.000 C 252.206 172.000,252.443 170.100,251.355 169.012 C 250.363 168.020,245.251 168.304,244.642 169.385 C 244.399 169.816,243.724 170.666,243.143 171.273 L 242.085 172.376 241.043 171.334 C 240.469 170.760,240.000 170.148,240.000 169.974 C 240.000 168.449,233.942 167.624,232.804 168.995 C 232.147 169.787,232.607 171.485,233.561 171.787 C 233.978 171.920,234.782 172.491,235.348 173.057 L 236.376 174.085 235.288 175.166 C 234.690 175.760,233.881 176.367,233.491 176.514 C 233.101 176.661,232.661 177.101,232.514 177.491 C 230.676 182.358,224.000 181.168,224.000 175.974 C 224.000 173.538,223.380 172.400,222.051 172.400 C 220.662 172.400,220.400 173.244,220.400 177.711 C 220.400 183.287,219.693 184.283,215.593 184.480 C 213.594 184.576,212.993 184.760,212.642 185.385 C 212.399 185.816,211.719 186.671,211.131 187.285 L 210.062 188.400 203.711 188.400 C 197.174 188.400,196.400 188.575,196.400 190.051 C 196.400 191.380,197.538 192.000,199.974 192.000 C 201.937 192.000,202.450 192.159,203.334 193.043 L 204.376 194.085 203.219 195.243 L 202.062 196.400 196.085 196.400 C 188.108 196.400,185.815 194.710,190.155 192.028 C 191.638 191.111,192.105 190.338,191.743 189.397 C 191.225 188.047,185.400 188.037,184.641 189.385 C 183.386 191.617,182.180 192.355,179.593 192.480 C 177.594 192.576,176.993 192.760,176.642 193.385 C 176.399 193.816,175.724 194.666,175.143 195.273 L 174.085 196.376 173.043 195.334 C 172.469 194.760,172.000 194.148,172.000 193.974 C 172.000 192.598,170.798 192.400,162.426 192.400 L 154.109 192.400 153.064 191.355 C 151.817 190.108,152.077 189.312,154.155 188.028 C 156.420 186.628,156.458 185.444,154.276 184.269 C 151.490 182.768,151.578 182.117,154.948 179.330 C 156.702 177.880,156.289 172.400,154.426 172.400 C 154.252 172.400,153.635 171.925,153.055 171.345 L 152.000 170.291 152.000 162.106 L 152.000 153.921 153.242 152.760 C 153.926 152.122,154.639 151.600,154.828 151.600 C 156.088 151.600,156.067 149.002,154.803 148.601 C 151.992 147.709,151.686 145.554,154.155 144.028 C 156.166 142.785,156.479 141.133,154.803 140.601 C 153.015 140.033,152.000 138.388,151.994 136.045 C 151.987 133.478,151.856 133.205,150.167 132.223 C 146.969 130.365,148.114 128.000,152.212 128.000 C 154.153 128.000,154.580 127.856,155.330 126.948 C 158.117 123.578,158.768 123.490,160.269 126.276 C 161.204 128.012,163.600 128.410,163.600 126.828 C 163.600 123.181,171.444 123.159,172.601 126.803 C 173.002 128.067,175.600 128.088,175.600 126.828 C 175.600 125.483,177.992 124.000,180.160 124.000 C 183.200 124.000,184.000 123.204,184.000 120.182 C 184.000 117.865,183.947 117.956,186.848 115.343 C 187.372 114.872,188.274 113.927,188.854 113.243 C 189.537 112.438,190.276 112.000,190.954 112.000 C 191.808 112.000,192.000 111.813,192.000 110.982 C 192.000 108.428,194.278 107.618,195.887 109.600 M227.882 113.560 C 228.189 114.051,228.025 114.455,227.181 115.286 L 226.080 116.371 225.050 115.341 C 224.242 114.533,224.105 114.151,224.415 113.572 C 225.296 111.926,226.858 111.920,227.882 113.560 M275.719 113.334 C 276.235 114.122,276.188 114.296,275.194 115.275 L 274.102 116.350 273.004 115.204 L 271.906 114.058 272.931 113.033 C 274.058 111.906,274.840 111.990,275.719 113.334 M192.400 113.571 C 192.400 115.693,193.859 116.541,195.200 115.200 C 196.730 113.670,196.276 112.400,194.200 112.400 C 192.476 112.400,192.400 112.450,192.400 113.571 M179.882 117.560 C 180.189 118.051,180.025 118.455,179.181 119.286 L 178.080 120.371 177.050 119.341 C 176.242 118.533,176.105 118.151,176.415 117.572 C 177.296 115.926,178.858 115.920,179.882 117.560 M296.400 122.200 L 296.400 128.000 299.419 128.000 C 302.752 128.000,304.400 129.012,304.400 131.058 C 304.400 132.389,309.897 132.503,311.200 131.200 C 312.259 130.141,311.778 128.400,310.426 128.400 C 309.206 128.400,308.000 126.200,308.000 123.974 C 308.000 120.945,307.458 120.400,304.446 120.400 C 302.030 120.400,300.833 119.629,299.635 117.300 C 299.290 116.629,298.819 116.400,297.786 116.400 L 296.400 116.400 296.400 122.200 M272.374 134.300 C 273.792 136.258,276.000 136.790,276.000 135.174 C 276.000 132.753,277.976 131.502,279.391 133.028 L 280.373 134.088 279.217 135.244 C 278.582 135.880,277.688 136.400,277.231 136.400 C 276.656 136.400,276.400 136.656,276.400 137.231 C 276.400 140.106,271.248 141.546,269.075 139.278 C 267.563 137.700,267.524 134.439,269.001 132.963 C 270.199 131.765,270.674 131.953,272.374 134.300 M307.882 153.560 C 308.189 154.051,308.025 154.455,307.181 155.286 L 306.080 156.371 305.050 155.341 C 304.242 154.533,304.105 154.151,304.415 153.572 C 305.296 151.926,306.858 151.920,307.882 153.560 M127.882 161.560 C 128.189 162.051,128.025 162.455,127.181 163.286 L 126.080 164.371 125.050 163.341 C 124.242 162.533,124.105 162.151,124.415 161.572 C 125.296 159.926,126.858 159.920,127.882 161.560 M115.882 177.560 C 116.189 178.051,116.025 178.455,115.181 179.286 L 114.080 180.371 113.050 179.341 C 112.242 178.533,112.105 178.151,112.415 177.572 C 113.296 175.926,114.858 175.920,115.882 177.560 M291.419 185.058 C 293.013 186.778,292.902 193.560,291.253 195.208 L 290.107 196.355 289.102 195.277 C 288.550 194.685,287.889 193.795,287.635 193.300 C 287.380 192.805,286.942 192.400,286.661 192.400 C 284.250 192.400,283.016 186.948,284.982 184.982 C 286.449 183.515,290.028 183.557,291.419 185.058 M127.882 189.560 C 128.189 190.051,128.025 190.455,127.181 191.286 L 126.080 192.371 125.050 191.341 C 124.242 190.533,124.105 190.151,124.415 189.572 C 125.296 187.926,126.858 187.920,127.882 189.560 M263.406 189.044 L 264.373 190.088 263.217 191.244 C 260.620 193.842,250.932 192.342,252.415 189.572 C 253.481 187.579,261.683 187.185,263.406 189.044 M183.882 197.560 C 184.189 198.051,184.025 198.455,183.181 199.286 L 182.080 200.371 181.050 199.341 C 180.242 198.533,180.105 198.151,180.415 197.572 C 181.296 195.926,182.858 195.920,183.882 197.560 M227.852 197.579 C 228.426 198.313,226.487 200.400,225.231 200.400 C 224.656 200.400,224.400 200.656,224.400 201.231 C 224.400 201.688,223.879 202.582,223.243 203.219 L 222.085 204.376 221.053 203.343 C 219.583 201.874,220.772 200.000,223.174 200.000 C 223.792 200.000,224.000 199.744,224.000 198.982 C 224.000 196.449,226.312 195.607,227.852 197.579 M283.719 197.334 C 284.235 198.122,284.188 198.296,283.194 199.275 L 282.102 200.350 281.004 199.204 L 279.906 198.058 280.931 197.033 C 282.058 195.906,282.840 195.990,283.719 197.334 M119.882 201.560 C 120.189 202.051,120.025 202.455,119.181 203.286 L 118.080 204.371 117.050 203.341 C 116.242 202.533,116.105 202.151,116.415 201.572 C 117.296 199.926,118.858 199.920,119.882 201.560 M167.882 201.560 C 168.189 202.051,168.025 202.455,167.181 203.286 L 166.080 204.371 165.050 203.341 C 164.242 202.533,164.105 202.151,164.415 201.572 C 165.296 199.926,166.858 199.920,167.882 201.560 M199.882 205.560 C 200.189 206.051,200.025 206.455,199.181 207.286 L 198.080 208.371 197.050 207.341 C 196.242 206.533,196.105 206.151,196.415 205.572 C 197.296 203.926,198.858 203.920,199.882 205.560 M215.882 205.560 C 216.189 206.051,216.025 206.455,215.181 207.286 L 214.080 208.371 213.050 207.341 C 212.242 206.533,212.105 206.151,212.415 205.572 C 213.296 203.926,214.858 203.920,215.882 205.560 M243.882 205.560 C 244.189 206.051,244.025 206.455,243.181 207.286 L 242.080 208.371 241.050 207.341 C 240.242 206.533,240.105 206.151,240.415 205.572 C 241.296 203.926,242.858 203.920,243.882 205.560 M171.882 209.560 C 172.189 210.051,172.025 210.455,171.181 211.286 L 170.080 212.371 169.050 211.341 C 168.242 210.533,168.105 210.151,168.415 209.572 C 169.296 207.926,170.858 207.920,171.882 209.560 M268.400 213.538 C 268.400 215.823,270.970 216.620,271.753 214.578 C 272.408 212.871,272.072 212.400,270.200 212.400 C 268.488 212.400,268.400 212.456,268.400 213.538 M195.887 229.600 C 196.155 229.930,196.380 230.605,196.387 231.100 C 196.397 231.776,196.635 232.000,197.345 232.000 C 198.781 232.000,200.547 233.910,199.801 234.656 C 199.486 234.971,198.971 235.486,198.656 235.801 C 197.910 236.547,196.000 234.781,196.000 233.345 C 196.000 232.618,195.782 232.400,195.055 232.400 C 193.662 232.400,191.907 230.520,192.415 229.572 C 193.315 227.889,194.506 227.899,195.887 229.600 M256.400 234.200 C 256.400 236.123,257.075 236.523,258.779 235.611 C 260.652 234.609,259.969 232.400,257.786 232.400 C 256.410 232.400,256.400 232.413,256.400 234.200 M183.882 237.560 C 184.189 238.051,184.025 238.455,183.181 239.286 L 182.080 240.371 181.050 239.341 C 180.242 238.533,180.105 238.151,180.415 237.572 C 181.296 235.926,182.858 235.920,183.882 237.560 M207.882 237.560 C 208.189 238.051,208.025 238.455,207.181 239.286 L 206.080 240.371 205.050 239.341 C 204.242 238.533,204.105 238.151,204.415 237.572 C 205.296 235.926,206.858 235.920,207.882 237.560 M243.882 237.560 C 244.189 238.051,244.025 238.455,243.181 239.286 L 242.080 240.371 241.050 239.341 C 240.242 238.533,240.105 238.151,240.415 237.572 C 241.296 235.926,242.858 235.920,243.882 237.560 M135.882 245.560 C 136.189 246.051,136.025 246.455,135.181 247.286 L 134.080 248.371 133.050 247.341 C 132.242 246.533,132.105 246.151,132.415 245.572 C 133.296 243.926,134.858 243.920,135.882 245.560 M203.882 245.560 C 204.189 246.051,204.025 246.455,203.181 247.286 L 202.080 248.371 201.050 247.341 C 200.242 246.533,200.105 246.151,200.415 245.572 C 201.296 243.926,202.858 243.920,203.882 245.560 M119.882 249.560 C 120.189 250.051,120.025 250.455,119.181 251.286 L 118.080 252.371 117.050 251.341 C 116.242 250.533,116.105 250.151,116.415 249.572 C 117.296 247.926,118.858 247.920,119.882 249.560 M243.882 249.560 C 244.189 250.051,244.025 250.455,243.181 251.286 L 242.080 252.371 241.050 251.341 C 240.242 250.533,240.105 250.151,240.415 249.572 C 241.296 247.926,242.858 247.920,243.882 249.560 M147.882 253.560 C 148.189 254.051,148.025 254.455,147.181 255.286 L 146.080 256.371 145.050 255.341 C 144.242 254.533,144.105 254.151,144.415 253.572 C 145.296 251.926,146.858 251.920,147.882 253.560 M247.882 257.560 C 248.189 258.051,248.025 258.455,247.181 259.286 L 246.080 260.371 245.050 259.341 C 244.242 258.533,244.105 258.151,244.415 257.572 C 245.296 255.926,246.858 255.920,247.882 257.560 M275.719 261.334 C 276.235 262.122,276.188 262.296,275.194 263.275 L 274.102 264.350 273.004 263.204 L 271.906 262.058 272.931 261.033 C 274.058 259.906,274.840 259.990,275.719 261.334 M104.880 260.880 C 103.966 261.794,104.779 264.000,106.029 264.000 C 106.769 264.000,108.000 262.376,108.000 261.400 C 108.000 260.281,105.839 259.921,104.880 260.880 M151.882 269.560 C 152.189 270.051,152.025 270.455,151.181 271.286 L 150.080 272.371 149.050 271.341 C 148.242 270.533,148.105 270.151,148.415 269.572 C 149.296 267.926,150.858 267.920,151.882 269.560 M239.882 269.560 C 240.189 270.051,240.025 270.455,239.181 271.286 L 238.080 272.371 237.050 271.341 C 236.242 270.533,236.105 270.151,236.415 269.572 C 237.296 267.926,238.858 267.920,239.882 269.560 M271.719 269.334 C 272.235 270.122,272.188 270.296,271.194 271.275 L 270.102 272.350 269.004 271.204 L 267.906 270.058 268.931 269.033 C 270.058 267.906,270.840 267.990,271.719 269.334 M279.719 269.334 C 280.235 270.122,280.188 270.296,279.194 271.275 L 278.102 272.350 277.004 271.204 L 275.906 270.058 276.931 269.033 C 278.058 267.906,278.840 267.990,279.719 269.334 M115.882 273.560 C 116.189 274.051,116.025 274.455,115.181 275.286 L 114.080 276.371 113.050 275.341 C 112.242 274.533,112.105 274.151,112.415 273.572 C 113.296 271.926,114.858 271.920,115.882 273.560 M143.887 273.600 C 144.874 274.814,144.514 277.947,143.243 279.219 L 142.085 280.376 141.043 279.334 C 139.547 277.838,139.533 274.431,141.017 272.947 C 142.086 271.878,142.580 271.990,143.887 273.600 M251.882 273.560 C 252.189 274.051,252.025 274.455,251.181 275.286 L 250.080 276.371 249.050 275.341 C 248.242 274.533,248.105 274.151,248.415 273.572 C 249.296 271.926,250.858 271.920,251.882 273.560 M263.719 273.334 C 264.235 274.122,264.188 274.296,263.194 275.275 L 262.102 276.350 261.004 275.204 L 259.906 274.058 260.931 273.033 C 262.058 271.906,262.840 271.990,263.719 273.334 M291.719 273.334 C 292.235 274.122,292.188 274.296,291.194 275.275 L 290.102 276.350 289.004 275.204 L 287.906 274.058 288.931 273.033 C 290.058 271.906,290.840 271.990,291.719 273.334 M123.882 281.560 C 124.189 282.051,124.025 282.455,123.181 283.286 L 122.080 284.371 121.050 283.341 C 120.242 282.533,120.105 282.151,120.415 281.572 C 121.296 279.926,122.858 279.920,123.882 281.560 M283.719 281.334 C 284.235 282.122,284.188 282.296,283.194 283.275 L 282.102 284.350 281.004 283.204 L 279.906 282.058 280.931 281.033 C 282.058 279.906,282.840 279.990,283.719 281.334 M104.880 292.880 C 103.676 294.084,104.873 296.000,106.829 296.000 C 107.857 296.000,108.000 295.857,108.000 294.829 C 108.000 292.873,106.084 291.676,104.880 292.880 M147.882 301.560 C 148.189 302.051,148.025 302.455,147.181 303.286 L 146.080 304.371 145.050 303.341 C 144.242 302.533,144.105 302.151,144.415 301.572 C 145.296 299.926,146.858 299.920,147.882 301.560 M143.882 313.560 C 144.189 314.051,144.025 314.455,143.181 315.286 L 142.080 316.371 141.050 315.341 C 140.242 314.533,140.105 314.151,140.415 313.572 C 141.296 311.926,142.858 311.920,143.882 313.560 M264.880 324.880 C 264.178 325.582,264.293 326.579,265.167 327.370 C 266.420 328.504,268.000 327.276,268.000 325.167 C 268.000 324.269,265.702 324.058,264.880 324.880 M295.719 329.334 C 296.235 330.122,296.188 330.296,295.194 331.275 L 294.102 332.350 293.004 331.204 L 291.906 330.058 292.931 329.033 C 294.058 327.906,294.840 327.990,295.719 329.334 " stroke="none" fill="#fcfcfc" fill-rule="evenodd"></path><path id="path1" d="M0.000 200.000 L 0.000 400.000 200.000 400.000 L 400.000 400.000 400.000 200.000 L 400.000 0.000 200.000 0.000 L 0.000 0.000 0.000 200.000 M195.371 69.029 C 195.717 69.374,196.000 69.800,196.000 69.974 C 196.000 70.148,196.469 70.760,197.043 71.334 L 198.085 72.376 199.143 71.273 C 199.724 70.666,200.398 69.816,200.641 69.385 C 201.929 67.092,204.000 68.688,204.000 71.974 C 204.000 73.937,204.159 74.450,205.043 75.334 L 206.085 76.376 207.243 75.219 C 208.260 74.202,208.400 73.773,208.400 71.680 C 208.400 68.039,210.536 67.161,212.141 70.142 C 212.548 70.899,213.494 71.848,214.243 72.251 C 214.992 72.654,215.700 73.285,215.816 73.652 C 217.139 77.818,228.400 77.441,228.400 73.231 C 228.400 72.421,228.578 72.400,235.571 72.400 C 242.744 72.400,244.000 72.635,244.000 73.974 C 244.000 74.148,244.469 74.760,245.043 75.334 L 246.085 76.376 247.243 75.219 C 247.879 74.582,248.400 73.890,248.400 73.680 C 248.400 71.883,251.112 72.231,252.152 74.162 C 252.565 74.930,253.510 75.846,254.252 76.198 C 254.993 76.550,255.600 77.003,255.600 77.205 C 255.600 77.407,256.159 78.208,256.841 78.986 L 258.083 80.400 262.627 80.400 C 267.878 80.400,268.000 80.483,268.000 84.052 C 268.000 85.780,268.188 86.353,269.053 87.256 L 270.107 88.355 271.153 87.262 C 271.729 86.661,272.398 85.816,272.640 85.385 C 273.302 84.205,275.038 84.142,275.622 85.276 C 276.869 87.697,278.003 88.400,280.661 88.400 C 283.631 88.400,284.000 88.803,284.000 92.052 C 284.000 95.216,285.269 96.400,288.661 96.400 C 291.751 96.400,292.000 96.741,292.000 100.974 C 292.000 103.949,291.983 104.000,290.982 104.000 C 290.421 104.000,289.501 104.463,288.935 105.029 L 287.906 106.058 289.006 107.206 L 290.107 108.355 291.253 107.208 C 291.884 106.578,292.400 105.688,292.400 105.231 C 292.400 104.550,292.650 104.400,293.786 104.400 C 295.746 104.400,296.000 105.153,296.000 110.974 L 296.000 116.000 294.982 116.000 C 292.746 116.000,292.000 117.516,292.000 122.060 C 292.000 126.559,292.893 128.400,295.075 128.400 C 295.775 128.400,296.000 128.625,296.000 129.325 C 296.000 131.247,297.921 132.400,301.122 132.400 L 304.000 132.400 304.000 134.200 C 304.000 135.862,303.922 136.000,302.982 136.000 C 300.123 136.000,298.816 140.920,301.053 143.256 L 302.107 144.355 303.253 143.208 C 304.300 142.162,304.400 141.814,304.400 139.231 L 304.400 136.400 307.571 136.400 C 311.852 136.400,313.140 137.518,310.948 139.330 C 307.597 142.102,307.505 142.676,310.167 144.223 C 311.987 145.281,311.987 145.282,311.994 152.045 C 312.000 158.408,312.580 160.400,314.426 160.400 C 316.097 160.400,316.701 165.699,315.200 167.200 C 314.506 167.894,313.867 168.000,310.374 168.000 C 308.159 168.000,306.003 168.184,305.583 168.409 C 302.862 169.866,304.667 172.400,308.426 172.400 C 311.481 172.400,312.000 172.932,312.000 176.059 C 312.000 178.165,311.871 178.568,310.948 179.330 C 309.613 180.435,308.435 181.613,307.330 182.948 C 306.531 183.915,306.215 184.000,303.430 184.000 L 300.400 184.000 300.400 181.058 C 300.400 177.081,299.503 176.000,296.201 176.000 C 294.331 176.000,293.795 176.169,292.935 177.029 L 291.906 178.058 293.028 179.229 C 293.645 179.873,294.380 180.400,294.661 180.400 C 294.942 180.400,295.380 180.805,295.635 181.300 C 296.456 182.896,298.125 184.400,299.075 184.400 C 299.761 184.400,300.000 184.627,300.000 185.278 C 300.000 186.238,301.843 188.400,302.661 188.400 C 304.418 188.400,304.095 190.829,302.180 192.012 C 301.443 192.468,300.457 193.461,299.988 194.220 C 299.519 194.979,298.988 195.600,298.810 195.600 C 297.482 195.600,296.000 198.005,296.000 200.160 C 296.000 201.867,295.809 202.591,295.200 203.200 C 294.077 204.323,293.768 204.225,292.374 202.300 C 290.597 199.847,290.158 199.711,288.882 201.213 C 288.287 201.913,287.372 202.872,286.848 203.343 C 285.416 204.633,284.297 205.780,283.330 206.948 C 282.178 208.342,280.400 208.409,280.400 207.058 C 280.400 204.548,277.543 203.464,276.426 205.551 C 275.938 206.464,277.769 208.400,279.122 208.400 C 280.275 208.400,280.322 210.078,279.200 211.200 C 277.897 212.503,272.400 212.389,272.400 211.058 C 272.400 209.581,270.604 207.863,269.613 208.393 C 268.661 208.903,268.000 210.042,268.000 211.174 C 268.000 211.792,267.744 212.000,266.982 212.000 C 266.011 212.000,265.281 212.590,263.330 214.948 C 262.178 216.342,260.400 216.409,260.400 215.058 C 260.400 212.548,257.543 211.464,256.426 213.551 C 255.938 214.464,257.769 216.400,259.122 216.400 C 260.275 216.400,260.322 218.078,259.200 219.200 C 258.501 219.899,257.867 220.000,254.160 220.000 C 249.928 220.000,247.600 220.997,247.600 222.810 C 247.600 222.988,246.968 223.526,246.195 224.003 C 242.195 226.475,244.141 228.400,250.640 228.400 C 254.711 228.400,255.214 228.479,255.586 229.174 C 256.317 230.540,256.104 232.000,255.174 232.000 C 254.061 232.000,252.905 232.657,252.419 233.564 C 251.907 234.520,253.654 236.400,255.055 236.400 C 255.962 236.400,256.000 236.517,256.000 239.325 C 256.000 243.305,257.016 244.400,260.708 244.400 C 263.626 244.400,264.000 244.815,264.000 248.052 C 264.000 249.780,264.188 250.353,265.053 251.256 L 266.107 252.355 267.153 251.262 C 267.729 250.661,268.398 249.816,268.640 249.385 C 269.302 248.205,271.038 248.142,271.622 249.276 C 272.300 250.592,274.058 252.400,274.661 252.400 C 274.942 252.400,275.380 252.805,275.635 253.300 C 276.301 254.595,278.063 256.400,278.661 256.400 C 278.942 256.400,279.380 256.805,279.635 257.300 C 280.301 258.595,282.063 260.400,282.661 260.400 C 282.942 260.400,283.380 260.805,283.635 261.300 C 284.867 263.695,286.009 264.400,288.661 264.400 C 290.861 264.400,291.229 264.511,291.635 265.300 C 292.301 266.595,294.063 268.400,294.661 268.400 C 295.630 268.400,296.000 269.960,296.000 274.052 C 296.000 278.279,296.889 280.400,298.661 280.400 C 299.487 280.400,300.000 281.798,300.000 284.052 C 300.000 286.205,301.345 288.400,302.665 288.400 C 302.948 288.400,303.456 288.935,303.794 289.588 C 304.937 291.798,305.933 292.400,308.447 292.400 C 310.605 292.400,312.000 293.018,312.000 293.974 C 312.000 295.194,314.200 296.400,316.426 296.400 C 320.057 296.400,320.000 296.248,320.000 305.974 L 320.000 314.291 321.040 315.331 C 321.613 315.904,322.406 316.475,322.803 316.601 C 324.479 317.133,324.166 318.785,322.155 320.028 C 319.920 321.409,320.105 324.400,322.426 324.400 C 322.864 324.400,324.000 325.575,324.000 326.029 C 324.000 327.147,322.335 328.000,320.154 328.000 C 318.134 328.000,317.802 328.125,316.854 329.243 C 316.274 329.927,315.372 330.872,314.848 331.343 C 311.947 333.956,312.000 333.865,312.000 336.182 C 312.000 339.832,311.657 340.000,304.182 340.000 C 297.313 340.000,297.942 339.791,295.330 342.948 C 294.183 344.335,293.846 344.281,292.543 342.500 C 290.430 339.612,289.637 339.551,288.028 342.155 C 286.253 345.027,284.400 344.128,284.400 340.396 C 284.400 337.081,283.324 336.000,280.022 336.000 C 277.657 336.000,277.580 335.965,276.431 334.379 C 275.785 333.488,274.659 332.357,273.929 331.865 C 272.696 331.037,272.591 330.795,272.482 328.525 C 272.346 325.714,271.186 324.000,269.419 324.000 C 268.616 324.000,268.400 323.801,268.400 323.058 C 268.400 322.090,267.290 320.745,265.448 319.481 C 264.520 318.845,264.400 318.496,264.400 316.440 C 264.400 313.982,263.921 313.178,261.448 311.481 C 260.520 310.845,260.400 310.496,260.400 308.440 C 260.400 305.982,259.921 305.178,257.448 303.481 C 255.989 302.481,255.803 296.400,257.231 296.400 C 257.688 296.400,258.582 295.880,259.217 295.244 L 260.373 294.088 259.391 293.028 C 257.976 291.502,256.000 292.753,256.000 295.174 C 256.000 295.821,255.746 296.000,254.829 296.000 C 253.731 296.000,252.400 295.138,252.400 294.426 C 252.400 293.206,250.200 292.000,247.974 292.000 C 244.765 292.000,244.400 291.548,244.400 287.571 C 244.400 284.628,244.460 284.400,245.231 284.400 C 245.688 284.400,246.582 283.879,247.219 283.243 L 248.376 282.085 247.343 281.053 C 245.874 279.583,244.000 280.772,244.000 283.174 C 244.000 283.938,243.768 284.000,240.900 283.994 C 237.434 283.987,237.236 283.909,236.216 282.154 C 235.817 281.469,234.931 280.583,234.246 280.184 C 232.542 279.194,232.413 278.925,232.406 276.355 C 232.400 274.005,231.385 272.366,229.580 271.794 C 229.174 271.665,228.735 271.226,228.606 270.820 C 228.025 268.989,226.400 268.000,223.974 268.000 C 221.795 268.000,220.400 267.386,220.400 266.426 C 220.400 265.230,218.198 264.000,216.045 263.994 C 213.468 263.987,213.207 263.860,212.198 262.124 C 211.790 261.423,210.851 260.523,210.111 260.124 C 208.223 259.108,207.910 256.400,209.680 256.400 C 209.890 256.400,210.582 255.879,211.219 255.243 L 212.376 254.085 211.334 253.043 C 210.467 252.176,209.925 252.000,208.127 252.000 C 205.865 252.000,205.669 252.120,203.330 254.948 C 201.688 256.934,197.554 256.456,196.198 254.124 C 195.790 253.423,194.857 252.526,194.126 252.132 C 193.394 251.738,192.700 251.115,192.584 250.748 C 191.892 248.569,190.524 248.000,185.974 248.000 C 181.765 248.000,180.400 247.615,180.400 246.426 C 180.400 244.580,178.408 244.000,172.045 243.994 C 165.282 243.987,165.281 243.987,164.223 242.167 C 162.676 239.505,162.102 239.597,159.330 242.948 C 158.496 243.958,158.297 244.000,154.404 244.000 C 152.173 244.000,150.003 244.184,149.583 244.409 C 146.862 245.866,148.667 248.400,152.426 248.400 C 155.481 248.400,156.000 248.932,156.000 252.059 C 156.000 254.165,155.871 254.568,154.948 255.330 C 152.120 257.669,152.000 257.865,152.000 260.127 C 152.000 262.199,153.250 264.400,154.426 264.400 C 156.395 264.400,156.843 273.764,154.948 275.330 C 151.578 278.117,151.490 278.768,154.276 280.269 C 156.012 281.204,156.410 283.600,154.828 283.600 C 153.473 283.600,152.000 285.992,152.000 288.191 C 152.000 290.154,151.858 290.578,150.948 291.330 C 147.597 294.102,147.505 294.676,150.167 296.223 C 151.856 297.205,151.987 297.478,151.994 300.045 C 152.000 302.198,153.230 304.400,154.426 304.400 C 155.852 304.400,156.000 305.495,156.000 316.059 L 156.000 326.461 154.948 327.330 C 152.109 329.679,152.000 329.858,152.000 332.182 C 152.000 335.198,151.198 336.000,148.182 336.000 C 145.077 336.000,144.000 337.077,144.000 340.182 C 144.000 344.127,144.461 344.001,130.100 343.994 C 116.932 343.987,117.311 344.038,116.198 342.124 C 115.790 341.423,114.885 340.541,114.187 340.165 C 113.489 339.789,112.603 338.897,112.218 338.182 C 111.833 337.467,110.899 336.548,110.142 336.141 C 108.228 335.111,107.893 332.400,109.680 332.400 C 110.395 332.400,112.400 330.064,112.400 329.231 C 112.400 328.656,112.656 328.400,113.231 328.400 C 113.688 328.400,114.582 327.879,115.219 327.243 L 116.376 326.085 115.343 325.053 C 113.874 323.583,112.000 324.772,112.000 327.174 C 112.000 328.279,106.093 328.436,105.017 327.359 C 103.979 326.322,104.291 317.260,105.385 316.643 C 105.816 316.399,106.666 315.724,107.273 315.143 L 108.376 314.085 107.348 313.057 C 106.782 312.491,105.978 311.920,105.561 311.787 C 104.072 311.315,103.928 305.461,105.385 304.641 C 107.791 303.287,108.400 302.195,108.400 299.231 L 108.400 296.400 111.231 296.400 C 116.889 296.400,118.845 289.465,113.652 287.816 C 113.285 287.700,112.654 286.992,112.251 286.243 C 111.848 285.494,110.899 284.548,110.142 284.141 C 108.383 283.194,108.349 283.020,108.486 275.443 C 108.591 269.611,108.665 269.049,109.385 268.643 C 113.444 266.351,113.415 260.000,109.345 260.000 C 108.618 260.000,108.400 259.782,108.400 259.055 C 108.400 258.032,106.787 256.177,105.561 255.787 C 104.136 255.335,104.239 252.400,105.680 252.400 C 105.890 252.400,106.582 251.879,107.219 251.243 L 108.376 250.085 107.348 249.057 C 106.782 248.491,105.978 247.920,105.561 247.787 C 104.072 247.315,103.928 241.461,105.385 240.641 C 105.816 240.399,106.666 239.724,107.273 239.143 L 108.376 238.085 107.348 237.057 C 106.782 236.491,105.978 235.920,105.561 235.787 C 104.136 235.335,104.239 232.400,105.680 232.400 C 109.582 232.400,109.475 221.030,105.561 219.787 C 104.072 219.315,103.928 213.461,105.385 212.641 C 105.816 212.399,106.666 211.723,107.274 211.141 L 108.380 210.082 108.490 203.584 C 108.591 197.609,108.663 197.050,109.385 196.643 C 109.816 196.399,110.666 195.724,111.273 195.143 L 112.376 194.085 111.334 193.043 C 110.450 192.159,109.937 192.000,107.974 192.000 C 104.688 192.000,103.092 189.929,105.385 188.641 C 109.698 186.217,109.822 177.140,105.561 175.787 C 102.919 174.949,104.513 172.400,107.680 172.400 C 109.773 172.400,110.202 172.260,111.219 171.243 L 112.376 170.085 111.334 169.043 C 110.760 168.469,110.148 168.000,109.974 168.000 C 109.014 168.000,108.400 166.605,108.400 164.426 C 108.400 162.200,107.194 160.000,105.974 160.000 C 104.542 160.000,103.639 154.121,104.880 152.880 C 105.809 151.951,108.000 152.278,108.000 153.345 C 108.000 154.781,109.910 156.547,110.656 155.801 C 110.971 155.486,111.486 154.971,111.801 154.656 C 112.547 153.910,110.781 152.000,109.345 152.000 C 108.618 152.000,108.400 151.782,108.400 151.055 C 108.400 150.032,106.787 148.177,105.561 147.787 C 104.072 147.315,103.928 141.461,105.385 140.641 C 105.816 140.399,106.666 139.724,107.273 139.143 L 108.376 138.085 107.348 137.057 C 106.782 136.491,106.019 135.933,105.652 135.816 C 105.285 135.700,104.654 134.992,104.251 134.243 C 103.848 133.494,102.899 132.548,102.142 132.141 C 100.544 131.281,100.311 130.619,100.478 127.425 C 100.573 125.595,100.771 124.986,101.385 124.641 C 101.816 124.399,102.666 123.724,103.273 123.143 L 104.376 122.085 103.348 121.057 C 102.782 120.491,101.978 119.920,101.561 119.787 C 100.136 119.335,100.239 116.400,101.680 116.400 C 103.433 116.400,104.372 114.121,104.486 109.587 C 104.587 105.599,104.690 105.035,105.385 104.643 C 106.529 103.997,108.205 102.309,108.514 101.491 C 108.661 101.101,109.101 100.661,109.491 100.514 C 110.405 100.169,112.169 98.405,112.514 97.491 C 112.661 97.101,113.101 96.661,113.491 96.514 C 115.405 95.791,116.400 94.148,116.400 91.711 C 116.400 88.779,116.779 88.400,119.711 88.400 C 122.148 88.400,123.791 87.405,124.514 85.491 C 124.661 85.101,125.101 84.661,125.491 84.514 C 126.310 84.205,127.999 82.527,128.641 81.385 C 129.213 80.367,130.527 80.184,131.350 81.007 C 132.435 82.092,132.286 88.000,131.174 88.000 C 128.772 88.000,127.583 89.874,129.053 91.343 L 130.085 92.376 131.243 91.219 C 131.879 90.582,132.400 89.688,132.400 89.231 C 132.400 88.656,132.656 88.400,133.231 88.400 C 134.980 88.400,136.400 86.300,136.400 83.711 C 136.400 81.292,136.845 80.400,138.051 80.400 C 139.380 80.400,140.000 81.538,140.000 83.974 C 140.000 85.937,140.159 86.450,141.043 87.334 L 142.085 88.376 143.243 87.219 C 144.257 86.205,144.400 85.770,144.400 83.711 C 144.400 80.512,144.580 80.400,149.711 80.400 C 154.320 80.400,155.627 79.841,156.514 77.491 C 156.661 77.101,157.101 76.661,157.491 76.514 C 158.365 76.184,160.400 74.201,160.400 73.680 C 160.400 72.239,163.335 72.136,163.787 73.561 C 164.177 74.787,166.032 76.400,167.055 76.400 C 167.782 76.400,168.000 76.618,168.000 77.345 C 168.000 78.658,169.910 80.547,170.570 79.887 C 170.838 79.619,171.353 79.104,171.716 78.742 C 172.547 77.910,170.895 76.000,169.345 76.000 C 168.543 76.000,168.400 75.801,168.400 74.680 C 168.400 72.774,168.998 72.400,172.051 72.400 C 175.498 72.400,176.000 72.855,176.000 75.974 C 176.000 77.937,176.159 78.450,177.043 79.334 L 178.085 80.376 179.243 79.219 C 180.260 78.202,180.400 77.773,180.400 75.680 C 180.400 72.513,182.949 70.919,183.787 73.561 C 183.920 73.978,184.491 74.782,185.057 75.348 L 186.085 76.376 187.166 75.288 C 187.760 74.690,188.367 73.881,188.514 73.491 C 188.661 73.101,189.101 72.661,189.491 72.514 C 190.338 72.194,192.400 70.207,192.400 69.711 C 192.400 68.472,194.364 68.021,195.371 69.029 M227.371 69.029 C 227.717 69.374,228.000 70.184,228.000 70.829 L 228.000 72.000 224.829 72.000 C 220.915 72.000,219.153 70.607,220.880 68.880 C 221.619 68.141,226.598 68.255,227.371 69.029 M193.505 80.429 C 191.049 81.860,192.699 84.400,196.085 84.400 C 197.732 84.400,198.255 84.207,199.219 83.243 L 200.376 82.085 199.334 81.043 C 198.208 79.918,194.968 79.577,193.505 80.429 M205.479 80.460 C 204.096 81.234,203.947 82.237,205.050 83.341 L 206.080 84.371 207.181 83.286 C 208.653 81.836,207.233 79.478,205.479 80.460 M229.479 80.460 C 228.096 81.234,227.947 82.237,229.050 83.341 L 230.080 84.371 231.181 83.286 C 232.653 81.836,231.233 79.478,229.479 80.460 M249.479 80.460 C 248.096 81.234,247.947 82.237,249.050 83.341 L 250.080 84.371 251.181 83.286 C 252.653 81.836,251.233 79.478,249.479 80.460 M181.479 84.460 C 180.096 85.234,179.947 86.237,181.050 87.341 L 182.080 88.371 183.181 87.286 C 184.653 85.836,183.233 83.478,181.479 84.460 M241.479 84.460 C 240.096 85.234,239.947 86.237,241.050 87.341 L 242.080 88.371 243.181 87.286 C 244.653 85.836,243.233 83.478,241.479 84.460 M260.931 85.033 L 259.906 86.058 261.004 87.204 L 262.102 88.350 263.194 87.275 C 264.188 86.296,264.235 86.122,263.719 85.334 C 262.840 83.990,262.058 83.906,260.931 85.033 M225.479 88.460 C 224.096 89.234,223.947 90.237,225.050 91.341 L 226.080 92.371 227.181 91.286 C 228.653 89.836,227.233 87.478,225.479 88.460 M253.481 88.459 C 251.535 89.548,252.674 92.400,255.055 92.400 C 255.776 92.400,256.000 92.619,256.000 93.325 C 256.000 93.834,256.495 94.716,257.100 95.286 L 258.200 96.322 259.284 95.202 L 260.369 94.083 259.403 93.041 C 258.850 92.445,258.003 92.000,257.419 92.000 C 256.661 92.000,256.400 91.792,256.400 91.186 C 256.400 89.379,254.690 87.782,253.481 88.459 M245.479 96.460 C 244.096 97.234,243.947 98.237,245.050 99.341 L 246.080 100.371 247.181 99.286 C 248.653 97.836,247.233 95.478,245.479 96.460 M268.978 96.986 C 267.442 98.522,267.494 105.628,269.053 107.256 L 270.107 108.355 271.253 107.208 C 272.357 106.105,272.400 105.916,272.400 102.217 C 272.400 96.940,271.065 94.899,268.978 96.986 M189.017 100.947 C 188.458 101.506,188.000 102.422,188.000 102.982 C 188.000 103.744,187.792 104.000,187.174 104.000 C 184.772 104.000,183.583 105.874,185.053 107.343 L 186.085 108.376 187.243 107.219 C 187.879 106.582,188.400 105.688,188.400 105.231 C 188.400 104.656,188.656 104.400,189.231 104.400 C 190.487 104.400,192.426 102.313,191.852 101.579 C 190.620 100.001,190.082 99.882,189.017 100.947 M276.931 101.033 L 275.906 102.058 277.004 103.204 L 278.102 104.350 279.194 103.275 C 280.188 102.296,280.235 102.122,279.719 101.334 C 278.840 99.990,278.058 99.906,276.931 101.033 M209.017 104.947 C 208.458 105.506,208.000 106.422,208.000 106.982 C 208.000 107.744,207.792 108.000,207.174 108.000 C 204.772 108.000,203.583 109.874,205.053 111.343 L 206.085 112.376 207.243 111.219 C 207.879 110.582,208.400 109.688,208.400 109.231 C 208.400 108.656,208.656 108.400,209.231 108.400 C 210.487 108.400,212.426 106.313,211.852 105.579 C 210.620 104.001,210.082 103.882,209.017 104.947 M253.481 104.459 C 252.096 105.234,251.946 106.237,253.050 107.341 L 254.080 108.371 255.183 107.286 C 256.724 105.769,255.316 103.432,253.481 104.459 M165.479 108.460 C 164.096 109.234,163.947 110.237,165.050 111.341 L 166.080 112.371 167.181 111.286 C 168.653 109.836,167.233 107.478,165.479 108.460 M193.017 108.947 C 192.458 109.506,192.000 110.422,192.000 110.982 C 192.000 111.813,191.808 112.000,190.954 112.000 C 190.276 112.000,189.537 112.438,188.854 113.243 C 188.274 113.927,187.372 114.872,186.848 115.343 C 183.947 117.956,184.000 117.865,184.000 120.182 C 184.000 123.204,183.200 124.000,180.160 124.000 C 177.992 124.000,175.600 125.483,175.600 126.828 C 175.600 128.088,173.002 128.067,172.601 126.803 C 171.444 123.159,163.600 123.181,163.600 126.828 C 163.600 128.410,161.204 128.012,160.269 126.276 C 158.768 123.490,158.117 123.578,155.330 126.948 C 154.580 127.856,154.153 128.000,152.212 128.000 C 148.114 128.000,146.969 130.365,150.167 132.223 C 151.856 133.205,151.987 133.478,151.994 136.045 C 152.000 138.388,153.015 140.033,154.803 140.601 C 156.479 141.133,156.166 142.785,154.155 144.028 C 151.686 145.554,151.992 147.709,154.803 148.601 C 156.067 149.002,156.088 151.600,154.828 151.600 C 154.639 151.600,153.926 152.122,153.242 152.760 L 152.000 153.921 152.000 162.106 L 152.000 170.291 153.055 171.345 C 153.635 171.925,154.252 172.400,154.426 172.400 C 156.289 172.400,156.702 177.880,154.948 179.330 C 151.578 182.117,151.490 182.768,154.276 184.269 C 156.458 185.444,156.420 186.628,154.155 188.028 C 152.077 189.312,151.817 190.108,153.064 191.355 L 154.109 192.400 162.426 192.400 C 170.798 192.400,172.000 192.598,172.000 193.974 C 172.000 194.148,172.469 194.760,173.043 195.334 L 174.085 196.376 175.143 195.273 C 175.724 194.666,176.399 193.816,176.642 193.385 C 176.993 192.760,177.594 192.576,179.593 192.480 C 182.180 192.355,183.386 191.617,184.641 189.385 C 185.400 188.037,191.225 188.047,191.743 189.397 C 192.105 190.338,191.638 191.111,190.155 192.028 C 185.815 194.710,188.108 196.400,196.085 196.400 L 202.062 196.400 203.219 195.243 L 204.376 194.085 203.334 193.043 C 202.450 192.159,201.937 192.000,199.974 192.000 C 197.538 192.000,196.400 191.380,196.400 190.051 C 196.400 188.575,197.174 188.400,203.711 188.400 L 210.062 188.400 211.131 187.285 C 211.719 186.671,212.399 185.816,212.642 185.385 C 212.993 184.760,213.594 184.576,215.593 184.480 C 219.693 184.283,220.400 183.287,220.400 177.711 C 220.400 173.244,220.662 172.400,222.051 172.400 C 223.380 172.400,224.000 173.538,224.000 175.974 C 224.000 181.168,230.676 182.358,232.514 177.491 C 232.661 177.101,233.101 176.661,233.491 176.514 C 233.881 176.367,234.690 175.760,235.288 175.166 L 236.376 174.085 235.348 173.057 C 234.782 172.491,233.978 171.920,233.561 171.787 C 232.607 171.485,232.147 169.787,232.804 168.995 C 233.942 167.624,240.000 168.449,240.000 169.974 C 240.000 170.148,240.469 170.760,241.043 171.334 L 242.085 172.376 243.143 171.273 C 243.724 170.666,244.399 169.816,244.642 169.385 C 245.251 168.304,250.363 168.020,251.355 169.012 C 252.443 170.100,252.206 172.000,250.982 172.000 C 249.671 172.000,248.000 173.671,248.000 174.982 C 248.000 175.806,247.806 176.000,246.982 176.000 C 244.126 176.000,242.784 181.075,245.043 183.334 L 246.085 184.376 247.243 183.219 C 248.301 182.160,248.400 181.820,248.400 179.231 C 248.400 176.632,248.468 176.400,249.231 176.400 C 250.305 176.400,252.400 174.305,252.400 173.231 C 252.400 172.513,252.644 172.400,254.200 172.400 C 255.815 172.400,256.000 172.495,256.000 173.325 C 256.000 173.834,256.495 174.716,257.100 175.286 L 258.200 176.322 259.284 175.202 L 260.369 174.083 259.403 173.041 C 258.839 172.432,258.005 172.000,257.395 172.000 C 256.063 172.000,256.055 169.387,257.385 168.641 C 258.391 168.075,260.074 166.393,260.642 165.385 C 260.993 164.760,261.594 164.576,263.593 164.480 C 267.614 164.287,268.400 163.241,268.400 158.089 C 268.400 152.116,266.400 150.317,264.028 154.155 C 263.012 155.798,262.553 156.000,259.829 156.000 C 256.745 156.000,255.199 153.877,257.385 152.643 C 258.530 151.996,260.205 150.309,260.514 149.491 C 260.661 149.101,261.101 148.661,261.491 148.514 C 263.781 147.649,264.400 146.283,264.400 142.089 C 264.400 136.116,262.400 134.317,260.028 138.155 C 258.977 139.856,258.103 140.217,257.142 139.348 C 255.929 138.250,256.011 124.400,257.231 124.400 C 257.688 124.400,258.582 123.880,259.217 123.244 L 260.373 122.088 259.391 121.028 C 257.976 119.502,256.000 120.753,256.000 123.174 C 256.000 123.792,255.744 124.000,254.982 124.000 C 254.011 124.000,253.281 124.590,251.330 126.948 C 249.684 128.938,248.400 127.833,248.400 124.426 C 248.400 120.373,247.702 120.000,240.106 120.000 L 233.921 120.000 232.760 121.242 C 232.122 121.926,231.600 122.639,231.600 122.828 C 231.600 124.088,229.002 124.067,228.601 122.803 C 227.891 120.566,226.553 120.000,221.974 120.000 C 217.765 120.000,216.400 119.615,216.400 118.426 C 216.400 116.572,214.415 116.000,207.974 116.000 C 201.693 116.000,200.400 115.731,200.400 114.426 C 200.400 113.723,198.230 112.000,197.345 112.000 C 196.635 112.000,196.397 111.776,196.387 111.100 C 196.357 108.937,194.325 107.639,193.017 108.947 M225.479 112.460 C 224.096 113.234,223.947 114.237,225.050 115.341 L 226.080 116.371 227.181 115.286 C 228.653 113.836,227.233 111.478,225.479 112.460 M272.931 113.033 L 271.906 114.058 273.004 115.204 L 274.102 116.350 275.194 115.275 C 276.188 114.296,276.235 114.122,275.719 113.334 C 274.840 111.990,274.058 111.906,272.931 113.033 M196.000 113.400 C 196.000 115.280,194.159 116.501,193.029 115.371 C 191.603 113.946,192.212 112.400,194.200 112.400 C 195.853 112.400,196.000 112.481,196.000 113.400 M177.479 116.460 C 176.096 117.234,175.947 118.237,177.050 119.341 L 178.080 120.371 179.181 119.286 C 180.653 117.836,179.233 115.478,177.479 116.460 M299.635 117.300 C 300.833 119.629,302.030 120.400,304.446 120.400 C 307.458 120.400,308.000 120.945,308.000 123.974 C 308.000 126.200,309.206 128.400,310.426 128.400 C 311.778 128.400,312.259 130.141,311.200 131.200 C 309.897 132.503,304.400 132.389,304.400 131.058 C 304.400 129.012,302.752 128.000,299.419 128.000 L 296.400 128.000 296.400 122.200 L 296.400 116.400 297.786 116.400 C 298.819 116.400,299.290 116.629,299.635 117.300 M269.001 132.963 C 267.524 134.439,267.563 137.700,269.075 139.278 C 271.248 141.546,276.400 140.106,276.400 137.231 C 276.400 136.656,276.656 136.400,277.231 136.400 C 277.688 136.400,278.582 135.880,279.217 135.244 L 280.373 134.088 279.391 133.028 C 277.976 131.502,276.000 132.753,276.000 135.174 C 276.000 136.790,273.792 136.258,272.374 134.300 C 270.674 131.953,270.199 131.765,269.001 132.963 M305.479 152.460 C 304.096 153.234,303.947 154.237,305.050 155.341 L 306.080 156.371 307.181 155.286 C 308.653 153.836,307.233 151.478,305.479 152.460 M125.479 160.460 C 124.096 161.234,123.947 162.237,125.050 163.341 L 126.080 164.371 127.181 163.286 C 128.653 161.836,127.233 159.478,125.479 160.460 M113.479 176.460 C 112.096 177.234,111.947 178.237,113.050 179.341 L 114.080 180.371 115.181 179.286 C 116.653 177.836,115.233 175.478,113.479 176.460 M284.982 184.982 C 283.016 186.948,284.250 192.400,286.661 192.400 C 286.942 192.400,287.380 192.805,287.635 193.300 C 287.889 193.795,288.550 194.685,289.102 195.277 L 290.107 196.355 291.253 195.208 C 292.902 193.560,293.013 186.778,291.419 185.058 C 290.028 183.557,286.449 183.515,284.982 184.982 M125.479 188.460 C 124.096 189.234,123.947 190.237,125.050 191.341 L 126.080 192.371 127.181 191.286 C 128.653 189.836,127.233 187.478,125.479 188.460 M253.505 188.429 C 252.088 189.255,251.941 190.231,253.064 191.355 C 254.729 193.020,261.516 192.946,263.217 191.244 L 264.373 190.088 263.406 189.044 C 262.358 187.913,255.158 187.466,253.505 188.429 M181.479 196.460 C 180.096 197.234,179.947 198.237,181.050 199.341 L 182.080 200.371 183.181 199.286 C 184.653 197.836,183.233 195.478,181.479 196.460 M225.017 196.947 C 224.458 197.506,224.000 198.422,224.000 198.982 C 224.000 199.744,223.792 200.000,223.174 200.000 C 220.772 200.000,219.583 201.874,221.053 203.343 L 222.085 204.376 223.243 203.219 C 223.879 202.582,224.400 201.688,224.400 201.231 C 224.400 200.656,224.656 200.400,225.231 200.400 C 226.487 200.400,228.426 198.313,227.852 197.579 C 226.620 196.001,226.082 195.882,225.017 196.947 M280.931 197.033 L 279.906 198.058 281.004 199.204 L 282.102 200.350 283.194 199.275 C 284.188 198.296,284.235 198.122,283.719 197.334 C 282.840 195.990,282.058 195.906,280.931 197.033 M117.479 200.460 C 116.096 201.234,115.947 202.237,117.050 203.341 L 118.080 204.371 119.181 203.286 C 120.653 201.836,119.233 199.478,117.479 200.460 M165.479 200.460 C 164.096 201.234,163.947 202.237,165.050 203.341 L 166.080 204.371 167.181 203.286 C 168.653 201.836,167.233 199.478,165.479 200.460 M197.479 204.460 C 196.096 205.234,195.947 206.237,197.050 207.341 L 198.080 208.371 199.181 207.286 C 200.653 205.836,199.233 203.478,197.479 204.460 M213.479 204.460 C 212.096 205.234,211.947 206.237,213.050 207.341 L 214.080 208.371 215.181 207.286 C 216.653 205.836,215.233 203.478,213.479 204.460 M241.479 204.460 C 240.096 205.234,239.947 206.237,241.050 207.341 L 242.080 208.371 243.181 207.286 C 244.653 205.836,243.233 203.478,241.479 204.460 M169.479 208.460 C 168.096 209.234,167.947 210.237,169.050 211.341 L 170.080 212.371 171.181 211.286 C 172.653 209.836,171.233 207.478,169.479 208.460 M272.000 213.167 C 272.000 215.276,270.420 216.504,269.167 215.370 C 267.605 213.956,268.146 212.400,270.200 212.400 C 271.708 212.400,272.000 212.525,272.000 213.167 M193.501 228.448 C 191.537 229.546,192.659 232.400,195.055 232.400 C 195.782 232.400,196.000 232.618,196.000 233.345 C 196.000 234.781,197.910 236.547,198.656 235.801 C 198.971 235.486,199.486 234.971,199.801 234.656 C 200.547 233.910,198.781 232.000,197.345 232.000 C 196.635 232.000,196.397 231.776,196.387 231.100 C 196.364 229.485,194.579 227.844,193.501 228.448 M259.584 233.171 C 260.329 234.563,259.131 236.000,257.226 236.000 C 256.514 236.000,256.400 235.752,256.400 234.200 C 256.400 232.145,258.647 231.419,259.584 233.171 M181.479 236.460 C 180.096 237.234,179.947 238.237,181.050 239.341 L 182.080 240.371 183.181 239.286 C 184.653 237.836,183.233 235.478,181.479 236.460 M205.479 236.460 C 204.096 237.234,203.947 238.237,205.050 239.341 L 206.080 240.371 207.181 239.286 C 208.653 237.836,207.233 235.478,205.479 236.460 M241.479 236.460 C 240.096 237.234,239.947 238.237,241.050 239.341 L 242.080 240.371 243.181 239.286 C 244.653 237.836,243.233 235.478,241.479 236.460 M133.479 244.460 C 132.096 245.234,131.947 246.237,133.050 247.341 L 134.080 248.371 135.181 247.286 C 136.653 245.836,135.233 243.478,133.479 244.460 M201.479 244.460 C 200.096 245.234,199.947 246.237,201.050 247.341 L 202.080 248.371 203.181 247.286 C 204.653 245.836,203.233 243.478,201.479 244.460 M117.479 248.460 C 116.096 249.234,115.947 250.237,117.050 251.341 L 118.080 252.371 119.181 251.286 C 120.653 249.836,119.233 247.478,117.479 248.460 M241.479 248.460 C 240.096 249.234,239.947 250.237,241.050 251.341 L 242.080 252.371 243.181 251.286 C 244.653 249.836,243.233 247.478,241.479 248.460 M145.479 252.460 C 144.096 253.234,143.947 254.237,145.050 255.341 L 146.080 256.371 147.181 255.286 C 148.653 253.836,147.233 251.478,145.479 252.460 M245.479 256.460 C 244.096 257.234,243.947 258.237,245.050 259.341 L 246.080 260.371 247.181 259.286 C 248.653 257.836,247.233 255.478,245.479 256.460 M272.931 261.033 L 271.906 262.058 273.004 263.204 L 274.102 264.350 275.194 263.275 C 276.188 262.296,276.235 262.122,275.719 261.334 C 274.840 259.990,274.058 259.906,272.931 261.033 M108.000 261.400 C 108.000 263.280,106.159 264.501,105.029 263.371 C 103.659 262.002,104.549 260.400,106.680 260.400 C 107.821 260.400,108.000 260.535,108.000 261.400 M149.479 268.460 C 148.096 269.234,147.947 270.237,149.050 271.341 L 150.080 272.371 151.181 271.286 C 152.653 269.836,151.233 267.478,149.479 268.460 M237.479 268.460 C 236.096 269.234,235.947 270.237,237.050 271.341 L 238.080 272.371 239.181 271.286 C 240.653 269.836,239.233 267.478,237.479 268.460 M268.931 269.033 L 267.906 270.058 269.004 271.204 L 270.102 272.350 271.194 271.275 C 272.188 270.296,272.235 270.122,271.719 269.334 C 270.840 267.990,270.058 267.906,268.931 269.033 M276.931 269.033 L 275.906 270.058 277.004 271.204 L 278.102 272.350 279.194 271.275 C 280.188 270.296,280.235 270.122,279.719 269.334 C 278.840 267.990,278.058 267.906,276.931 269.033 M113.479 272.460 C 112.096 273.234,111.947 274.237,113.050 275.341 L 114.080 276.371 115.181 275.286 C 116.653 273.836,115.233 271.478,113.479 272.460 M141.017 272.947 C 139.533 274.431,139.547 277.838,141.043 279.334 L 142.085 280.376 143.243 279.219 C 145.106 277.356,144.855 274.140,142.717 272.465 C 142.127 272.003,141.895 272.069,141.017 272.947 M249.479 272.460 C 248.096 273.234,247.947 274.237,249.050 275.341 L 250.080 276.371 251.181 275.286 C 252.653 273.836,251.233 271.478,249.479 272.460 M260.931 273.033 L 259.906 274.058 261.004 275.204 L 262.102 276.350 263.194 275.275 C 264.188 274.296,264.235 274.122,263.719 273.334 C 262.840 271.990,262.058 271.906,260.931 273.033 M288.931 273.033 L 287.906 274.058 289.004 275.204 L 290.102 276.350 291.194 275.275 C 292.188 274.296,292.235 274.122,291.719 273.334 C 290.840 271.990,290.058 271.906,288.931 273.033 M121.479 280.460 C 120.096 281.234,119.947 282.237,121.050 283.341 L 122.080 284.371 123.181 283.286 C 124.653 281.836,123.233 279.478,121.479 280.460 M280.931 281.033 L 279.906 282.058 281.004 283.204 L 282.102 284.350 283.194 283.275 C 284.188 282.296,284.235 282.122,283.719 281.334 C 282.840 279.990,282.058 279.906,280.931 281.033 M107.371 293.029 C 108.525 294.182,108.193 296.000,106.829 296.000 C 104.873 296.000,103.676 294.084,104.880 292.880 C 105.544 292.216,106.623 292.280,107.371 293.029 M145.479 300.460 C 144.096 301.234,143.947 302.237,145.050 303.341 L 146.080 304.371 147.181 303.286 C 148.653 301.836,147.233 299.478,145.479 300.460 M141.479 312.460 C 140.096 313.234,139.947 314.237,141.050 315.341 L 142.080 316.371 143.181 315.286 C 144.653 313.836,143.233 311.478,141.479 312.460 M268.000 325.167 C 268.000 327.276,266.420 328.504,265.167 327.370 C 263.654 326.001,264.470 324.400,266.680 324.400 C 267.715 324.400,268.000 324.566,268.000 325.167 M292.931 329.033 L 291.906 330.058 293.004 331.204 L 294.102 332.350 295.194 331.275 C 296.188 330.296,296.235 330.122,295.719 329.334 C 294.840 327.990,294.058 327.906,292.931 329.033 " stroke="none" fill="#040404" fill-rule="evenodd"></path></g></svg>